<svg width="128" height="128" viewBox="0 0 128 128" fill="none" xmlns="http://www.w3.org/2000/svg">
<path d="M18.5643 44.493C18.3065 44.5561 18.0494 44.6217 17.792 44.6893C18.049 44.621 18.306 44.5555 18.5643 44.493Z" stroke="#A2CB4B" stroke-width="8" stroke-miterlimit="10" stroke-linecap="round" stroke-linejoin="round"/>
<path d="M18.9503 44.3985L18.9508 44.3991C18.8216 44.4304 18.6932 44.4612 18.5645 44.4931C18.6927 44.4606 18.8218 44.4293 18.9503 44.3985Z" stroke="#A2CB4B" stroke-width="8" stroke-miterlimit="10" stroke-linecap="round" stroke-linejoin="round"/>
<path d="M19.8957 44.1805C19.5796 44.2509 19.2654 44.3236 18.9502 44.3991C19.2645 44.3224 19.5798 44.2498 19.8957 44.1805Z" stroke="#A2CB4B" stroke-width="8" stroke-miterlimit="10" stroke-linecap="round" stroke-linejoin="round"/>
<path d="M57.1089 117.345C57.0947 117.315 57.081 117.285 57.0673 117.255C57.1187 117.365 57.17 117.476 57.2219 117.586C57.1843 117.506 57.1466 117.426 57.1089 117.345Z" stroke="#A2CB4B" stroke-width="8" stroke-miterlimit="10" stroke-linecap="round" stroke-linejoin="round"/>
<path d="M56.8917 116.872C56.8813 116.85 56.8719 116.828 56.862 116.806C56.9013 116.893 56.9412 116.98 56.9816 117.068C56.951 117.003 56.9216 116.938 56.8917 116.872Z" stroke="#A2CB4B" stroke-width="8" stroke-miterlimit="10" stroke-linecap="round" stroke-linejoin="round"/>
<path d="M56.4767 115.938C56.437 115.846 56.3977 115.754 56.358 115.662C56.4235 115.814 56.4894 115.967 56.556 116.119C56.5292 116.059 56.5029 115.999 56.4767 115.938Z" stroke="#A2CB4B" stroke-width="8" stroke-miterlimit="10" stroke-linecap="round" stroke-linejoin="round"/>
<path d="M54.6952 111.279C54.6843 111.246 54.6737 111.213 54.6627 111.18L54.7346 111.396C54.7216 111.357 54.7082 111.318 54.6952 111.279Z" stroke="#A2CB4B" stroke-width="8" stroke-miterlimit="10" stroke-linecap="round" stroke-linejoin="round"/>
<path d="M52.9239 104.683C52.9205 104.666 52.9167 104.647 52.9133 104.63C52.9377 104.749 52.9625 104.87 52.9884 104.99C52.9819 104.96 52.9758 104.931 52.9693 104.901C52.9544 104.829 52.9388 104.756 52.9239 104.683Z" stroke="#A2CB4B" stroke-width="8" stroke-miterlimit="10" stroke-linecap="round" stroke-linejoin="round"/>
<path d="M51.7773 90.9034C51.7795 90.8604 51.7805 90.8173 51.7827 90.7743C51.7797 90.841 51.7773 90.9073 51.7754 90.9741C51.7762 90.9504 51.7771 90.9266 51.7773 90.9034Z" stroke="#A2CB4B" stroke-width="8" stroke-miterlimit="10" stroke-linecap="round" stroke-linejoin="round"/>
<path d="M61.139 61.3374C61.1021 61.3934 61.065 61.4504 61.0286 61.507C61.0519 61.4706 61.0759 61.4338 61.0992 61.3974C61.1123 61.3772 61.1254 61.357 61.139 61.3374Z" stroke="#A2CB4B" stroke-width="8" stroke-miterlimit="10" stroke-linecap="round" stroke-linejoin="round"/>
<path d="M110.576 29.662C111.914 31.4847 113.129 33.3596 114.223 35.2775C105.71 34.5954 97.0215 35.7847 88.822 38.9479C82.7412 32.0883 75.3154 26.9775 67.2386 23.7229C52.6336 17.8363 35.8996 18.0184 21.142 24.8985C23.6759 22.1259 26.5182 19.5611 29.6613 17.2538C53.9214 -0.555014 87.4485 3.32465 107.077 25.3404L107.077 25.3411C108.299 26.7119 109.467 28.1521 110.576 29.662Z" stroke="#A2CB4B" stroke-width="8" stroke-miterlimit="10" stroke-linecap="round" stroke-linejoin="round"/>
<path d="M57.1089 117.345C57.0947 117.315 57.081 117.285 57.0673 117.255C57.1187 117.365 57.17 117.476 57.2219 117.586C57.1843 117.506 57.1466 117.426 57.1089 117.345Z" stroke="#A2CB4B" stroke-width="8" stroke-miterlimit="10" stroke-linecap="round" stroke-linejoin="round"/>
<path d="M56.8917 116.872C56.8813 116.85 56.8719 116.828 56.862 116.806C56.9013 116.893 56.9412 116.98 56.9816 117.068C56.951 117.003 56.9216 116.938 56.8917 116.872Z" stroke="#A2CB4B" stroke-width="8" stroke-miterlimit="10" stroke-linecap="round" stroke-linejoin="round"/>
<path d="M56.4767 115.938C56.437 115.846 56.3977 115.754 56.358 115.662C56.4235 115.814 56.4894 115.967 56.556 116.119C56.5292 116.059 56.5029 115.999 56.4767 115.938Z" stroke="#A2CB4B" stroke-width="8" stroke-miterlimit="10" stroke-linecap="round" stroke-linejoin="round"/>
<path d="M54.6952 111.279C54.6843 111.246 54.6737 111.213 54.6627 111.18L54.7346 111.396C54.7216 111.357 54.7082 111.318 54.6952 111.279Z" stroke="#A2CB4B" stroke-width="8" stroke-miterlimit="10" stroke-linecap="round" stroke-linejoin="round"/>
<path d="M52.9239 104.683C52.9205 104.666 52.9167 104.647 52.9133 104.63C52.9377 104.749 52.9625 104.87 52.9884 104.99C52.9819 104.96 52.9758 104.931 52.9693 104.901C52.9544 104.829 52.9388 104.756 52.9239 104.683Z" stroke="#A2CB4B" stroke-width="8" stroke-miterlimit="10" stroke-linecap="round" stroke-linejoin="round"/>
<path d="M51.7773 90.9034C51.7795 90.8604 51.7805 90.8173 51.7827 90.7743C51.7797 90.841 51.7773 90.9073 51.7754 90.9741C51.7762 90.9504 51.7771 90.9266 51.7773 90.9034Z" stroke="#A2CB4B" stroke-width="8" stroke-miterlimit="10" stroke-linecap="round" stroke-linejoin="round"/>
<path d="M61.139 61.3374C61.1021 61.3934 61.065 61.4504 61.0286 61.507C61.0519 61.4706 61.0759 61.4338 61.0992 61.3974C61.1123 61.3772 61.1254 61.357 61.139 61.3374Z" stroke="#A2CB4B" stroke-width="8" stroke-miterlimit="10" stroke-linecap="round" stroke-linejoin="round"/>
<path d="M88.8218 38.9479C84.1382 40.7536 79.6137 43.2048 75.3729 46.3179C72.2298 48.6251 69.3875 51.19 66.8536 53.9626C66.8275 53.9913 66.8008 54.0206 66.7748 54.0493C58.6219 48.0515 49.1285 44.3882 39.3214 43.2189C38.9279 43.1719 38.5332 43.1286 38.1388 43.0909C38.0782 43.0844 38.0193 43.0776 37.96 43.0729C36.8085 42.9624 35.6534 42.8862 34.4963 42.8454C34.4195 42.843 34.3433 42.8402 34.2665 42.8379C33.6325 42.8173 32.9978 42.8077 32.3626 42.809C32.2428 42.8084 32.1228 42.8089 32.0027 42.8105C31.9555 42.8105 31.9083 42.8104 31.8614 42.8121C31.7438 42.8119 31.6275 42.8135 31.51 42.816C31.1045 42.822 30.6993 42.8326 30.2939 42.8482C30.1445 42.853 29.9959 42.8591 29.8471 42.8663C29.6538 42.8743 29.4597 42.884 29.2659 42.8953C29.0974 42.9045 28.9284 42.9141 28.7601 42.9249C28.7423 42.9255 28.7249 42.9267 28.7075 42.9279C28.555 42.9378 28.4025 42.9478 28.2503 42.9594C28.2252 42.9605 28.2016 42.9625 28.1768 42.9642C28.0197 42.9756 27.863 42.9877 27.7061 43.0008C27.6915 43.0019 27.6775 43.0026 27.6634 43.0043C27.4919 43.0185 27.3203 43.0338 27.1486 43.0491C27.0755 43.0557 27.0017 43.0627 26.9279 43.0697C26.9167 43.0702 26.906 43.0713 26.8953 43.0725C26.7945 43.082 26.6941 43.0922 26.5931 43.1027C26.4218 43.1197 26.2502 43.1378 26.0797 43.1572C26.0006 43.1662 25.9221 43.1747 25.8431 43.1837C25.66 43.2044 25.4775 43.2258 25.2941 43.2488C25.1985 43.2602 25.1034 43.2723 25.0088 43.2849C24.8899 43.3 24.7715 43.3157 24.6524 43.3319C24.5826 43.3417 24.5124 43.3509 24.4415 43.3606C24.1829 43.3965 23.924 43.4345 23.6647 43.4746C23.5795 43.4871 23.4948 43.5002 23.41 43.5144C23.3851 43.5172 23.3612 43.5213 23.3366 43.5259C23.245 43.5402 23.1539 43.5551 23.0628 43.57C23.0453 43.5723 23.0288 43.5747 23.0122 43.5783C22.9354 43.5904 22.8584 43.6036 22.7815 43.6168C22.7691 43.6182 22.7571 43.6202 22.7449 43.6234C22.6395 43.6411 22.5335 43.6592 22.4279 43.678C22.2159 43.7143 22.0046 43.7529 21.7931 43.7927C21.6874 43.8125 21.5821 43.833 21.4763 43.8529C21.3706 43.8727 21.2647 43.8937 21.1599 43.9148C21.054 43.9357 20.9485 43.9573 20.8431 43.9788C20.7899 43.989 20.7372 43.9998 20.6849 44.0112C20.6322 44.022 20.5799 44.0334 20.5272 44.0442C20.3162 44.0885 20.106 44.1339 19.8957 44.1805C19.5798 44.2498 19.2645 44.3224 18.9502 44.3991L18.9498 44.3985C18.8213 44.4293 18.6921 44.4606 18.5639 44.4931C18.3057 44.5556 18.0486 44.6211 17.7917 44.6894C17.6633 44.723 17.5354 44.7572 17.4068 44.7919C17.3149 44.8161 17.2227 44.8414 17.1313 44.8662C16.87 44.9377 16.6094 45.0115 16.3487 45.0865C16.3173 45.0961 16.2859 45.1046 16.2545 45.1142C16.0668 45.1693 15.8789 45.2254 15.691 45.2815C15.4046 45.3685 15.1178 45.4578 14.8317 45.5493C14.7389 45.579 14.6462 45.6086 14.5531 45.6393C14.5345 45.6453 14.5158 45.6513 14.4975 45.658C14.4205 45.6828 14.3438 45.7083 14.2667 45.7331C14.1655 45.767 14.0649 45.8004 13.9642 45.8349C13.891 45.8598 13.8167 45.8844 13.744 45.9099C13.4376 46.0145 13.1314 46.1218 12.8264 46.2321C12.3828 46.3922 11.9416 46.5583 11.5012 46.7294C11.3626 46.7831 11.2254 46.8376 11.0872 46.8919C10.1253 47.2756 9.17033 47.6859 8.22335 48.124C9.24692 44.5043 10.6238 40.9765 12.3463 37.5954C12.8775 36.5529 13.4417 35.5236 14.0384 34.51C16.0421 31.1083 18.4133 27.8833 21.1418 24.8986C35.8995 18.0185 52.6334 17.8365 67.2385 23.723C75.3152 26.9775 82.741 32.0883 88.8218 38.9479Z" stroke="#A2CB4B" stroke-width="8" stroke-miterlimit="10" stroke-linecap="round" stroke-linejoin="round"/>
<path d="M18.5643 44.493C18.3065 44.5561 18.0494 44.6217 17.792 44.6893C18.049 44.621 18.306 44.5555 18.5643 44.493Z" stroke="#A2CB4B" stroke-width="8" stroke-miterlimit="10" stroke-linecap="round" stroke-linejoin="round"/>
<path d="M18.9503 44.3985L18.9508 44.3991C18.8216 44.4304 18.6932 44.4612 18.5645 44.4931C18.6927 44.4606 18.8218 44.4293 18.9503 44.3985Z" stroke="#A2CB4B" stroke-width="8" stroke-miterlimit="10" stroke-linecap="round" stroke-linejoin="round"/>
<path d="M19.8957 44.1805C19.5796 44.2509 19.2654 44.3236 18.9502 44.3991C19.2645 44.3224 19.5798 44.2498 19.8957 44.1805Z" stroke="#A2CB4B" stroke-width="8" stroke-miterlimit="10" stroke-linecap="round" stroke-linejoin="round"/>
<path d="M18.5643 44.493C18.3065 44.5561 18.0494 44.6217 17.792 44.6893C18.049 44.621 18.306 44.5555 18.5643 44.493Z" stroke="#A2CB4B" stroke-width="8" stroke-miterlimit="10" stroke-linecap="round" stroke-linejoin="round"/>
<path d="M18.9503 44.3985L18.9508 44.3991C18.8216 44.4304 18.6932 44.4612 18.5645 44.4931C18.6927 44.4606 18.8218 44.4293 18.9503 44.3985Z" stroke="#A2CB4B" stroke-width="8" stroke-miterlimit="10" stroke-linecap="round" stroke-linejoin="round"/>
<path d="M19.8957 44.1805C19.5796 44.2509 19.2654 44.3236 18.9502 44.3991C19.2645 44.3224 19.5798 44.2498 19.8957 44.1805Z" stroke="#A2CB4B" stroke-width="8" stroke-miterlimit="10" stroke-linecap="round" stroke-linejoin="round"/>
<path d="M57.1089 117.345C57.0947 117.315 57.081 117.285 57.0673 117.255C57.1187 117.365 57.17 117.476 57.2219 117.586C57.1843 117.506 57.1466 117.426 57.1089 117.345Z" stroke="#A2CB4B" stroke-width="8" stroke-miterlimit="10" stroke-linecap="round" stroke-linejoin="round"/>
<path d="M56.8917 116.872C56.8813 116.85 56.8719 116.828 56.862 116.806C56.9013 116.893 56.9412 116.98 56.9816 117.068C56.951 117.003 56.9216 116.938 56.8917 116.872Z" stroke="#A2CB4B" stroke-width="8" stroke-miterlimit="10" stroke-linecap="round" stroke-linejoin="round"/>
<path d="M56.4767 115.938C56.437 115.846 56.3977 115.754 56.358 115.662C56.4235 115.814 56.4894 115.967 56.556 116.119C56.5292 116.059 56.5029 115.999 56.4767 115.938Z" stroke="#A2CB4B" stroke-width="8" stroke-miterlimit="10" stroke-linecap="round" stroke-linejoin="round"/>
<path d="M54.6952 111.279C54.6843 111.246 54.6737 111.213 54.6627 111.18L54.7346 111.396C54.7216 111.357 54.7082 111.318 54.6952 111.279Z" stroke="#A2CB4B" stroke-width="8" stroke-miterlimit="10" stroke-linecap="round" stroke-linejoin="round"/>
<path d="M52.9239 104.683C52.9205 104.666 52.9167 104.647 52.9133 104.63C52.9377 104.749 52.9625 104.87 52.9884 104.99C52.9819 104.96 52.9758 104.931 52.9693 104.901C52.9544 104.829 52.9388 104.756 52.9239 104.683Z" stroke="#A2CB4B" stroke-width="8" stroke-miterlimit="10" stroke-linecap="round" stroke-linejoin="round"/>
<path d="M51.7773 90.9034C51.7795 90.8604 51.7805 90.8173 51.7827 90.7743C51.7797 90.841 51.7773 90.9073 51.7754 90.9741C51.7762 90.9504 51.7771 90.9266 51.7773 90.9034Z" stroke="#A2CB4B" stroke-width="8" stroke-miterlimit="10" stroke-linecap="round" stroke-linejoin="round"/>
<path d="M61.139 61.3374C61.1021 61.3934 61.065 61.4504 61.0286 61.507C61.0519 61.4706 61.0759 61.4338 61.0992 61.3974C61.1123 61.3772 61.1254 61.357 61.139 61.3374Z" stroke="#A2CB4B" stroke-width="8" stroke-miterlimit="10" stroke-linecap="round" stroke-linejoin="round"/>
<path d="M114.224 35.2774C115.707 37.8744 116.967 40.55 118.01 43.2788C120.692 50.296 121.931 57.6671 121.791 64.9776C121.459 82.3977 113.298 99.4697 98.1679 110.576C95.0248 112.884 91.7261 114.827 88.3216 116.413C88.2695 116.438 88.217 116.462 88.1651 116.486C78.9792 120.735 69.0342 122.395 59.3176 121.617C59.1444 121.312 58.9736 121.008 58.8064 120.701C58.7773 120.648 58.7482 120.596 58.7201 120.543C58.6785 120.467 58.637 120.39 58.596 120.314C58.5428 120.215 58.4899 120.115 58.4373 120.016C58.42 119.985 58.4037 119.953 58.3874 119.922C58.3203 119.795 58.2537 119.668 58.1879 119.54C58.1284 119.425 58.0689 119.31 58.01 119.194C57.9208 119.019 57.8328 118.844 57.7454 118.668C57.7008 118.579 57.6558 118.489 57.6125 118.398C57.6102 118.395 57.609 118.392 57.6074 118.388C57.5601 118.291 57.5133 118.195 57.4665 118.098C57.4375 118.038 57.4084 117.977 57.3794 117.917C57.3264 117.806 57.274 117.696 57.222 117.586C57.1843 117.505 57.1467 117.425 57.109 117.345C57.0947 117.315 57.0811 117.285 57.0674 117.254C57.0381 117.192 57.0099 117.13 56.9816 117.068C56.9511 117.003 56.9217 116.938 56.8918 116.872C56.8813 116.85 56.8719 116.828 56.862 116.805C56.8284 116.732 56.7957 116.659 56.7626 116.585C56.6932 116.43 56.6243 116.274 56.5565 116.119C56.5297 116.059 56.5034 115.998 56.4772 115.938C56.4375 115.846 56.3982 115.754 56.3585 115.662C56.3035 115.532 56.2485 115.402 56.1942 115.271C56.166 115.206 56.1384 115.139 56.1115 115.072C56.0619 114.954 56.013 114.835 55.9647 114.715C55.9562 114.694 55.9482 114.674 55.9398 114.654C55.8934 114.539 55.8466 114.424 55.8016 114.309C55.7751 114.243 55.7486 114.177 55.7233 114.111C55.6606 113.951 55.5976 113.79 55.5367 113.63C55.515 113.573 55.493 113.517 55.4723 113.46C55.45 113.403 55.4288 113.345 55.4075 113.289C55.3862 113.232 55.3651 113.174 55.3437 113.118C55.2913 112.978 55.2406 112.838 55.1899 112.699C55.1786 112.667 55.1677 112.637 55.1564 112.606C55.1077 112.471 55.0595 112.336 55.0125 112.201C55.0015 112.172 54.9916 112.142 54.9816 112.113C54.9721 112.088 54.9636 112.064 54.9552 112.039C54.9317 111.972 54.9086 111.905 54.8851 111.837C54.8343 111.691 54.7843 111.543 54.7348 111.395C54.7218 111.357 54.7084 111.317 54.6955 111.279C54.6845 111.245 54.6739 111.213 54.663 111.179C54.6386 111.107 54.6146 111.035 54.5913 110.963C54.5902 110.958 54.5888 110.954 54.5871 110.95C54.5501 110.837 54.5137 110.723 54.4773 110.609C54.463 110.565 54.4483 110.52 54.4346 110.475C54.3946 110.348 54.3546 110.222 54.3153 110.095C54.3123 110.085 54.3094 110.075 54.3064 110.066C54.2707 109.951 54.2355 109.837 54.2015 109.722C54.1561 109.572 54.1119 109.423 54.0677 109.274C54.0493 109.212 54.0317 109.15 54.0134 109.088C53.9891 109.004 53.9648 108.92 53.9412 108.835C53.9306 108.799 53.9208 108.762 53.9103 108.725C53.8853 108.638 53.8613 108.552 53.8374 108.466C53.7403 108.118 53.6472 107.77 53.5575 107.421C53.5216 107.279 53.4851 107.136 53.4498 106.994C53.4241 106.89 53.3987 106.787 53.374 106.684C53.2913 106.348 53.2132 106.01 53.1373 105.672C53.0861 105.445 53.0366 105.218 52.9888 104.99C52.9823 104.96 52.9763 104.931 52.9697 104.901C52.9548 104.828 52.9393 104.756 52.9244 104.683C52.9209 104.665 52.9171 104.647 52.9137 104.629C52.8889 104.509 52.8645 104.389 52.8409 104.268C52.8259 104.192 52.8104 104.116 52.7965 104.04C52.7787 103.95 52.7609 103.859 52.7444 103.768C52.7224 103.654 52.7011 103.54 52.6804 103.425C52.6612 103.319 52.6419 103.213 52.6233 103.106C52.623 103.104 52.6232 103.103 52.6222 103.102C52.5869 102.902 52.5531 102.702 52.5195 102.502C52.5189 102.498 52.5179 102.494 52.5174 102.49C52.4843 102.293 52.453 102.095 52.4223 101.897C52.3959 101.729 52.3708 101.56 52.3462 101.391C52.3457 101.387 52.3447 101.383 52.3443 101.378C52.3333 101.301 52.3223 101.225 52.3113 101.148C52.2894 100.994 52.268 100.84 52.2477 100.687C52.2386 100.619 52.2299 100.552 52.2213 100.486C52.2018 100.334 52.1823 100.183 52.1644 100.032C52.1498 99.9133 52.1356 99.7957 52.1221 99.6777C52.1055 99.5397 52.09 99.4018 52.0762 99.2638C52.0757 99.2603 52.0746 99.2563 52.0746 99.2524C52.0677 99.1892 52.0609 99.1249 52.0541 99.0605C52.0385 98.9122 52.0236 98.7633 52.0093 98.6141C51.9861 98.378 51.9647 98.1415 51.9449 97.9048C51.9333 97.767 51.9221 97.6299 51.9116 97.4923C51.9009 97.3558 51.8908 97.2187 51.8814 97.0813C51.871 96.9388 51.8613 96.7957 51.8533 96.6524C51.8439 96.515 51.8362 96.3773 51.8284 96.2395C51.8206 96.1018 51.8135 95.9636 51.8069 95.826C51.7995 95.6717 51.7925 95.5179 51.7868 95.3634C51.7826 95.2673 51.779 95.1718 51.7759 95.0758C51.7713 94.9541 51.7673 94.832 51.7639 94.7093C51.7589 94.5426 51.7544 94.3765 51.7512 94.2095C51.75 94.1671 51.7498 94.1249 51.7485 94.0825C51.7455 93.9027 51.7432 93.7226 51.7419 93.5425C51.7417 93.5331 51.7415 93.5236 51.7413 93.5141C51.7409 93.4913 51.741 93.4691 51.7411 93.4469C51.7409 93.4375 51.7408 93.4269 51.7406 93.4174C51.7394 93.2768 51.7393 93.1364 51.7397 92.9965C51.7394 92.8572 51.7402 92.718 51.741 92.5788C51.7406 92.5415 51.7413 92.5044 51.7422 92.4663C51.7438 92.2967 51.7461 92.1255 51.7494 91.9556C51.7527 91.7857 51.756 91.6158 51.761 91.4456C51.7651 91.2887 51.7699 91.1311 51.7757 90.9738C51.7765 90.9501 51.7774 90.9264 51.7777 90.9031C51.7798 90.8601 51.7808 90.817 51.783 90.774C51.7889 90.6234 51.7947 90.4727 51.8028 90.3225C51.8087 90.1862 51.8158 90.0502 51.8233 89.9137C51.8255 89.8524 51.8288 89.7913 51.8325 89.7309C51.8338 89.7116 51.8346 89.6918 51.8359 89.6726C51.8415 89.578 51.8476 89.484 51.8532 89.3894C51.8557 89.3442 51.8588 89.2987 51.862 89.2531C51.8697 89.1338 51.8774 89.0146 51.8863 88.8955C51.8974 88.7362 51.9096 88.5771 51.9224 88.4175C51.9522 88.0346 51.9864 87.6525 52.0249 87.2709C52.0396 87.1244 52.0547 86.9785 52.0705 86.8321C52.0891 86.653 52.1093 86.4745 52.1301 86.2957C52.1472 86.1512 52.1644 86.0067 52.1826 85.8624C52.2062 85.6651 52.232 85.4681 52.2589 85.2713C52.2697 85.1864 52.2816 85.1016 52.2936 85.0158C52.3055 84.931 52.3169 84.8456 52.33 84.76C52.3545 84.5899 52.3795 84.4195 52.4056 84.2492C52.4123 84.2019 52.4194 84.1553 52.4272 84.1082C52.441 84.0181 52.4555 83.9276 52.4703 83.8378C52.4775 83.7873 52.4858 83.7369 52.4946 83.6872C52.5191 83.5344 52.5441 83.3823 52.5702 83.2303C52.5844 83.1448 52.5991 83.0599 52.6142 82.9756C52.6294 82.8875 52.6452 82.7988 52.6608 82.7113C52.6913 82.5456 52.7217 82.3798 52.7532 82.2143C52.7685 82.129 52.7853 82.0444 52.8016 81.9603C52.8345 81.7888 52.8686 81.6175 52.9036 81.4475C52.9147 81.3892 52.9263 81.3316 52.9384 81.2746C52.9781 81.0809 53.0187 80.8884 53.061 80.6956C53.0973 80.5274 53.1347 80.3594 53.1727 80.1921C53.2042 80.0515 53.2358 79.9109 53.2695 79.7706C53.2931 79.6677 53.3177 79.5649 53.3425 79.461C53.3454 79.4493 53.3485 79.4364 53.3514 79.4246C53.3751 79.3245 53.3993 79.2249 53.4245 79.1255C53.4335 79.0892 53.4417 79.0532 53.4511 79.0175C53.4782 78.9062 53.5057 78.7955 53.5343 78.685C53.5767 78.5172 53.6201 78.3496 53.6645 78.1832C53.7071 78.0211 53.7503 77.8594 53.7944 77.698C53.8405 77.5275 53.8882 77.3577 53.9359 77.188C53.9812 77.0267 54.0276 76.8657 54.075 76.7048C54.0764 76.6988 54.0785 76.6925 54.0804 76.6873C54.1044 76.6032 54.1287 76.5209 54.154 76.4388C54.1612 76.4132 54.169 76.3884 54.1762 76.3628C54.2112 76.2428 54.2478 76.1235 54.2846 76.0031C54.3449 75.8059 54.4059 75.6099 54.4688 75.4135C54.5306 75.2171 54.5946 75.021 54.659 74.8254C54.7461 74.5613 54.8348 74.2979 54.9256 74.0348C54.9296 74.0232 54.9343 74.0112 54.9383 73.9996C54.9781 73.8846 55.0179 73.7698 55.0583 73.6544C55.094 73.5522 55.1307 73.4502 55.1676 73.347C55.2013 73.2539 55.2352 73.1598 55.27 73.0668C55.2924 73.0042 55.3154 72.9411 55.3388 72.8787C55.3567 72.8309 55.3741 72.7826 55.392 72.7348C55.4094 72.6864 55.4279 72.6381 55.4462 72.591C55.4474 72.5873 55.4485 72.5835 55.4501 72.5805C55.5018 72.4424 55.5539 72.305 55.6072 72.1677C55.618 72.1366 55.6298 72.1068 55.6416 72.077C55.6733 71.993 55.7066 71.9099 55.7388 71.8265C55.7481 71.8024 55.7572 71.7794 55.7669 71.7559C55.819 71.6223 55.8717 71.4883 55.926 71.3551C55.9756 71.2311 56.0254 71.1089 56.0759 70.9862C56.0902 70.9506 56.1044 70.9161 56.1191 70.8812C56.1674 70.7621 56.2165 70.6442 56.2661 70.5269C56.3436 70.34 56.4231 70.1546 56.5037 69.9694C56.5408 69.8835 56.5776 69.7986 56.6146 69.7127C56.662 69.6029 56.7105 69.4932 56.76 69.3837C56.7653 69.3711 56.7712 69.3582 56.7769 69.3463C56.8201 69.2491 56.8627 69.1524 56.9074 69.056C56.9168 69.0347 56.9262 69.0134 56.936 68.9927C56.9732 68.9096 57.0112 68.8277 57.0489 68.7452C57.0589 68.7235 57.0688 68.7016 57.0795 68.6794C57.1369 68.5545 57.195 68.429 57.2542 68.3038C57.3352 68.1308 57.4165 67.9585 57.5007 67.786C57.52 67.7468 57.5389 67.7069 57.5583 67.6677C57.6307 67.5173 57.7043 67.367 57.7789 67.2169C57.8264 67.1204 57.8744 67.0245 57.9231 66.9282C57.9655 66.8431 58.0091 66.7582 58.052 66.6737C58.1436 66.4929 58.2367 66.3129 58.3309 66.1331C58.3774 66.0431 58.425 65.9532 58.4727 65.8634C58.5203 65.7736 58.568 65.6838 58.6161 65.5945C58.6637 65.5047 58.7118 65.4155 58.7604 65.3269C58.8085 65.2377 58.8572 65.1481 58.9063 65.059C58.9441 64.9899 58.9826 64.9203 59.0216 64.8502C59.0822 64.7412 59.1427 64.6323 59.205 64.5231C59.2907 64.3697 59.3784 64.2177 59.465 64.0656C59.5912 63.8468 59.7192 63.6278 59.8487 63.4095C59.9319 63.2685 60.0162 63.1277 60.1017 62.9871C60.353 62.5716 60.6099 62.1597 60.8726 61.7493C60.9239 61.6683 60.9762 61.5875 61.0286 61.5068C61.052 61.4704 61.0759 61.4335 61.0993 61.3971C61.1124 61.3769 61.1254 61.3568 61.139 61.3372C61.2574 61.1549 61.3778 60.9742 61.4982 60.7933C61.5366 60.7354 61.5753 60.6781 61.6141 60.6207C61.7523 60.4143 61.8925 60.2094 62.0343 60.0052C62.1938 59.7754 62.355 59.5464 62.5183 59.3178C62.599 59.2037 62.6814 59.0903 62.7643 58.9765C62.9136 58.7706 63.065 58.5651 63.2173 58.361C63.2523 58.3141 63.2878 58.2668 63.3228 58.22C63.3792 58.1449 63.4357 58.0697 63.4926 57.9952C63.5638 57.9006 63.6359 57.8062 63.7086 57.7125C63.7947 57.6002 63.8812 57.4886 63.9681 57.3776C64.0316 57.2963 64.0952 57.215 64.1592 57.1343C64.2445 57.0264 64.3299 56.9185 64.4164 56.8108C64.4912 56.7173 64.566 56.6239 64.642 56.5306C64.7036 56.4546 64.7658 56.3781 64.8285 56.3022C64.9522 56.1508 65.0774 56.0002 65.2031 55.8501C65.3527 55.671 65.5038 55.4927 65.6558 55.3156C65.7451 55.2116 65.8354 55.1078 65.9251 55.0044C65.9656 54.9573 66.0072 54.9105 66.0483 54.8629C66.1022 54.8012 66.1567 54.7391 66.2116 54.6775C66.2781 54.6028 66.3445 54.5281 66.4109 54.4533C66.5321 54.3182 66.6533 54.183 66.7754 54.0491C66.8015 54.0203 66.8282 53.9911 66.8542 53.9623C69.3881 51.1897 72.2304 48.6249 75.3735 46.3176C79.6142 43.2045 84.1388 40.7533 88.8224 38.9476C97.022 35.7846 105.711 34.5954 114.224 35.2774Z" stroke="#A2CB4B" stroke-width="8" stroke-miterlimit="10" stroke-linecap="round" stroke-linejoin="round"/>
<path d="M18.5643 44.493C18.3065 44.5561 18.0494 44.6217 17.792 44.6893C18.049 44.621 18.306 44.5555 18.5643 44.493Z" stroke="#A2CB4B" stroke-width="8" stroke-miterlimit="10" stroke-linecap="round" stroke-linejoin="round"/>
<path d="M18.9503 44.3985L18.9508 44.3991C18.8216 44.4304 18.6932 44.4612 18.5645 44.4931C18.6927 44.4606 18.8218 44.4293 18.9503 44.3985Z" stroke="#A2CB4B" stroke-width="8" stroke-miterlimit="10" stroke-linecap="round" stroke-linejoin="round"/>
<path d="M19.8957 44.1805C19.5796 44.2509 19.2654 44.3236 18.9502 44.3991C19.2645 44.3224 19.5798 44.2498 19.8957 44.1805Z" stroke="#A2CB4B" stroke-width="8" stroke-miterlimit="10" stroke-linecap="round" stroke-linejoin="round"/>
<path d="M39.3214 43.219C35.7304 47.8139 32.9068 52.8706 30.8806 58.1928C30.2721 59.7897 29.7359 61.4115 29.2717 63.0517C27.9622 67.6822 27.2315 72.4615 27.0977 77.2723C26.7519 89.6879 30.3823 102.308 38.3014 113.096C39.4098 114.606 40.5773 116.045 41.7987 117.416C32.3203 113.509 23.762 107.035 17.253 98.1682C6.26582 83.2009 3.53402 64.706 8.22338 48.124C9.17035 47.6858 10.1253 47.2755 11.0872 46.8918C11.2255 46.8376 11.3626 46.7831 11.5012 46.7294C11.9416 46.5582 12.3828 46.3922 12.8264 46.2321C13.1314 46.1218 13.4376 46.0144 13.744 45.9098C13.8167 45.8843 13.891 45.8597 13.9642 45.8348C14.065 45.8003 14.1656 45.7669 14.2668 45.733C14.3439 45.7082 14.4205 45.6827 14.4976 45.6579C14.5158 45.6513 14.5345 45.6452 14.5532 45.6392C14.6461 45.6085 14.7389 45.5789 14.8317 45.5493C15.1178 45.4577 15.4046 45.3685 15.691 45.2814C15.8789 45.2253 16.0668 45.1692 16.2545 45.1142C16.286 45.1046 16.3173 45.096 16.3487 45.0864C16.6095 45.0115 16.87 44.9377 17.1313 44.8661C17.2228 44.8413 17.3149 44.816 17.4069 44.7919C17.5354 44.7572 17.6633 44.7229 17.7917 44.6893C18.0491 44.6217 18.3061 44.5562 18.5639 44.493C18.6926 44.4611 18.8211 44.4303 18.9503 44.3991C19.2655 44.3236 19.5797 44.2508 19.8958 44.1805C20.106 44.1339 20.3162 44.0884 20.5272 44.0442C20.58 44.0334 20.6323 44.022 20.685 44.0112C20.7372 43.9997 20.7899 43.9889 20.8431 43.9788C20.9486 43.9572 21.054 43.9357 21.1599 43.9147C21.2647 43.8936 21.3706 43.8727 21.4764 43.8528C21.5821 43.833 21.6874 43.8125 21.7931 43.7926C22.0046 43.7529 22.2159 43.7142 22.428 43.6779C22.5335 43.6591 22.6396 43.641 22.745 43.6233C22.7571 43.6202 22.7691 43.6181 22.7815 43.6167C22.8585 43.6035 22.9354 43.5904 23.0122 43.5783C23.0288 43.5747 23.0453 43.5722 23.0628 43.5699C23.1539 43.555 23.245 43.5401 23.3366 43.5258C23.3611 43.5212 23.3851 43.5172 23.41 43.5143C23.4949 43.5001 23.5796 43.487 23.6647 43.4746C23.924 43.4344 24.183 43.3964 24.4416 43.3606C24.5124 43.3509 24.5827 43.3417 24.6525 43.3318C24.7715 43.3157 24.8899 43.3 25.0088 43.2849C25.1035 43.2722 25.1986 43.2602 25.2941 43.2487C25.4774 43.2257 25.6601 43.2044 25.8431 43.1836C25.9221 43.1747 26.0006 43.1661 26.0797 43.1572C26.2503 43.1378 26.4218 43.1197 26.5932 43.1027C26.6941 43.0921 26.7945 43.0819 26.8953 43.0724C26.9061 43.0713 26.9168 43.0701 26.928 43.0696C27.0017 43.0627 27.0755 43.0556 27.1487 43.0491C27.3203 43.0338 27.492 43.0185 27.6634 43.0042C27.6776 43.0025 27.6915 43.0019 27.7061 43.0008C27.863 42.9876 28.0197 42.9756 28.1769 42.9642C28.2016 42.9624 28.2252 42.9605 28.2503 42.9593C28.4025 42.9477 28.555 42.9378 28.7075 42.9278C28.7249 42.9266 28.7423 42.9254 28.7602 42.9248C28.9283 42.914 29.0975 42.9044 29.266 42.8953C29.4597 42.8839 29.6538 42.8743 29.8471 42.8662C29.9959 42.859 30.1445 42.853 30.294 42.8481C30.6993 42.8326 31.1044 42.822 31.5101 42.8159C31.627 42.8138 31.7442 42.8124 31.8614 42.8121C31.9083 42.8104 31.9555 42.8104 32.0027 42.8104C32.1228 42.8089 32.2428 42.8084 32.3626 42.809C32.9978 42.8076 33.6325 42.8172 34.2665 42.8379C34.3433 42.8402 34.4195 42.843 34.4963 42.8453C35.6535 42.8862 36.8086 42.9623 37.9601 43.0728C38.0191 43.0786 38.0788 43.0838 38.1388 43.0908C38.5332 43.1287 38.9279 43.172 39.3214 43.219Z" stroke="#A2CB4B" stroke-width="8" stroke-miterlimit="10" stroke-linecap="round" stroke-linejoin="round"/>
<path d="M66.7754 54.0493C66.6533 54.1832 66.5321 54.3183 66.4109 54.4535C66.3445 54.5283 66.2781 54.603 66.2117 54.6777C66.1567 54.7392 66.1022 54.8014 66.0484 54.8631C66.0072 54.9106 65.9656 54.9575 65.9251 55.0046C65.8343 55.1078 65.7451 55.2118 65.6559 55.3158C65.5038 55.4929 65.3527 55.6712 65.2031 55.8503C65.0774 56.0004 64.9522 56.151 64.8285 56.3024C64.7658 56.3783 64.7036 56.4548 64.642 56.5308C64.566 56.6241 64.4912 56.7175 64.4164 56.811C64.3299 56.9187 64.2441 57.026 64.1592 57.1345C64.0952 57.2152 64.0316 57.2965 63.9681 57.3778C63.8812 57.4888 63.7947 57.6004 63.7086 57.7127C63.636 57.8064 63.5638 57.9008 63.4927 57.9954C63.4357 58.0699 63.3792 58.145 63.3228 58.2202C63.2878 58.267 63.2523 58.3143 63.2173 58.3611C63.065 58.5654 62.9136 58.7709 62.7643 58.9767C62.6814 59.0905 62.5991 59.2039 62.5183 59.318C62.355 59.5466 62.1939 59.7756 62.0343 60.0054C61.8925 60.2095 61.7523 60.4145 61.6141 60.6209C61.5753 60.6783 61.5366 60.7356 61.4982 60.7935C61.3778 60.9743 61.2574 61.1551 61.139 61.3373C61.1254 61.3569 61.1124 61.3771 61.0993 61.3973C61.0759 61.4337 61.052 61.4706 61.0286 61.507C60.9763 61.5877 60.9239 61.6685 60.8726 61.7495C60.6099 62.1599 60.353 62.5718 60.1017 62.9873C60.0163 63.1279 59.9319 63.2687 59.8487 63.4097C59.7192 63.628 59.5912 63.847 59.465 64.0658C59.3773 64.2178 59.2907 64.3699 59.205 64.5233C59.1427 64.6325 59.0822 64.7414 59.0216 64.8504C58.9826 64.9204 58.9441 64.9901 58.9063 65.0592C58.8571 65.1482 58.8085 65.2379 58.7604 65.3271C58.7118 65.4157 58.6631 65.5054 58.6161 65.5947C58.568 65.684 58.5203 65.7738 58.4727 65.8636C58.4246 65.9528 58.3781 66.0428 58.3309 66.1333C58.2367 66.3131 58.1436 66.4931 58.052 66.6739C58.0091 66.7583 57.9656 66.8432 57.9231 66.9283C57.8745 67.0247 57.8265 67.1206 57.7789 67.2171C57.7043 67.3672 57.6307 67.5174 57.5583 67.6679C57.5389 67.7071 57.5201 67.7469 57.5007 67.7862C57.4165 67.9586 57.3352 68.131 57.2542 68.304C57.1951 68.4292 57.137 68.5546 57.0795 68.6796C57.0689 68.7018 57.0588 68.7236 57.0489 68.7454C57.0112 68.8279 56.9732 68.9098 56.936 68.9929C56.9262 69.0135 56.9168 69.0349 56.9074 69.0562C56.8627 69.1526 56.8201 69.2493 56.7769 69.3465C56.7712 69.3584 56.7653 69.3714 56.76 69.3838C56.7105 69.4934 56.6621 69.603 56.6146 69.7129C56.5772 69.7982 56.5403 69.883 56.5037 69.9695C56.4231 70.1548 56.3436 70.3402 56.2662 70.5271C56.2165 70.6444 56.1674 70.7622 56.1191 70.8814C56.1044 70.9163 56.0902 70.9508 56.0759 70.9864C56.025 71.1085 55.9749 71.2318 55.926 71.3553C55.8717 71.4885 55.819 71.6225 55.7669 71.7561C55.7572 71.7796 55.7481 71.8026 55.7389 71.8267C55.7067 71.91 55.6734 71.9932 55.6416 72.0772C55.6298 72.107 55.618 72.1368 55.6072 72.1679C55.5535 72.3045 55.5018 72.4426 55.4501 72.5807C55.4485 72.5838 55.4474 72.5875 55.4462 72.5912C55.4279 72.6383 55.4094 72.6866 55.392 72.735C55.3741 72.7827 55.3567 72.8311 55.3388 72.8789C55.3154 72.9414 55.2924 73.0044 55.27 73.067C55.2352 73.1599 55.2013 73.2541 55.1676 73.3472C55.1308 73.4504 55.094 73.5524 55.0584 73.6546C55.0179 73.77 54.9781 73.8849 54.9383 73.9998C54.9343 74.0114 54.9296 74.0234 54.9256 74.035C54.8348 74.2981 54.7461 74.5615 54.659 74.8256C54.5946 75.0212 54.5306 75.2173 54.4688 75.4137C54.406 75.61 54.3448 75.806 54.2846 76.0033C54.2478 76.1237 54.2112 76.243 54.1762 76.363C54.169 76.3886 54.1612 76.4134 54.154 76.439C54.1286 76.5211 54.1044 76.6034 54.0804 76.6875C54.0785 76.6927 54.0764 76.6991 54.075 76.705C54.0276 76.8659 53.9812 77.0269 53.9359 77.1882C53.8883 77.3579 53.8405 77.5277 53.7944 77.6982C53.7502 77.8597 53.7072 78.0212 53.6645 78.1834C53.6201 78.3498 53.5766 78.5174 53.5343 78.6852C53.5057 78.7957 53.4782 78.9064 53.4511 79.0177C53.4417 79.0535 53.4335 79.0894 53.4245 79.1258C53.3993 79.2251 53.3745 79.3251 53.3515 79.4248C53.3485 79.4366 53.3455 79.4495 53.3425 79.4612C53.3177 79.5651 53.2931 79.6679 53.2695 79.7708C53.2358 79.9111 53.2043 80.0517 53.1727 80.1923C53.1348 80.3596 53.0974 80.5277 53.061 80.6958C53.0187 80.8886 52.9781 81.0811 52.9384 81.2748C52.9263 81.3318 52.9147 81.3894 52.9036 81.4477C52.8686 81.6177 52.8346 81.789 52.8016 81.9605C52.7854 82.0446 52.7685 82.1291 52.7532 82.2145C52.7212 82.3794 52.6908 82.5452 52.6608 82.7115C52.6452 82.7991 52.6294 82.8877 52.6142 82.9758C52.5991 83.0601 52.5844 83.145 52.5702 83.2305C52.5441 83.3825 52.519 83.5346 52.4946 83.6874C52.4858 83.7371 52.4775 83.7875 52.4703 83.838C52.4555 83.9278 52.441 84.0183 52.4272 84.1084C52.4194 84.1555 52.4123 84.2021 52.4056 84.2494C52.3795 84.4197 52.3545 84.5901 52.33 84.7601C52.3169 84.8458 52.3055 84.9312 52.2936 85.016C52.2816 85.1018 52.2696 85.1866 52.2589 85.2715C52.232 85.4683 52.2062 85.6653 52.1826 85.8626C52.1644 86.0069 52.1472 86.1514 52.1301 86.2959C52.1093 86.4747 52.0891 86.6531 52.0705 86.8323C52.0548 86.9787 52.0396 87.1246 52.0249 87.2711C51.9864 87.6526 51.9522 88.0348 51.9224 88.4177C51.9095 88.5773 51.8973 88.7364 51.8863 88.8957C51.8775 89.0147 51.8697 89.134 51.862 89.2533C51.8588 89.2989 51.8557 89.3445 51.8533 89.3896C51.8476 89.4842 51.8416 89.5782 51.8359 89.6727C51.8346 89.692 51.8338 89.7118 51.8325 89.7311C51.8288 89.7916 51.8255 89.8526 51.8233 89.9139C51.8151 90.0509 51.8081 90.1869 51.8028 90.3226C51.7948 90.473 51.7889 90.6236 51.783 90.7742C51.7809 90.8172 51.7798 90.8603 51.7777 90.9033C51.7774 90.9266 51.7765 90.9503 51.7757 90.974C51.7699 91.1313 51.7652 91.2888 51.7611 91.4458C51.756 91.616 51.7521 91.7864 51.7494 91.9558C51.746 92.1268 51.7438 92.2969 51.7422 92.4665C51.7413 92.5046 51.7406 92.5417 51.741 92.579C51.7396 92.7186 51.7394 92.8574 51.7397 92.9967C51.7393 93.1366 51.7395 93.277 51.7406 93.4176C51.7408 93.4271 51.7409 93.4377 51.7411 93.4471C51.741 93.4693 51.7409 93.4915 51.7413 93.5143C51.7416 93.5238 51.7417 93.5332 51.7419 93.5427C51.7432 93.7227 51.7455 93.9029 51.7485 94.0827C51.7498 94.1251 51.75 94.1673 51.7512 94.2097C51.7545 94.3767 51.7589 94.5428 51.7639 94.7095C51.7673 94.8322 51.7714 94.9543 51.776 95.076C51.779 95.172 51.7821 95.2679 51.7868 95.3636C51.7925 95.5182 51.7995 95.6719 51.8069 95.8262C51.8135 95.9638 51.8207 96.102 51.8284 96.2397C51.8362 96.3775 51.8439 96.5152 51.8533 96.6526C51.8613 96.796 51.871 96.939 51.8814 97.0815C51.8908 97.219 51.9009 97.356 51.9116 97.4925C51.9221 97.6301 51.9333 97.7672 51.9449 97.905C51.9647 98.1417 51.9861 98.3781 52.0093 98.6143C52.0236 98.7636 52.0385 98.9124 52.0541 99.0607C52.0609 99.1251 52.0677 99.1894 52.0747 99.2526C52.0746 99.2565 52.0756 99.2605 52.0762 99.264C52.09 99.4021 52.1055 99.5399 52.1221 99.6778C52.1356 99.7959 52.1498 99.9135 52.1644 100.032C52.1823 100.183 52.2018 100.334 52.2213 100.486C52.23 100.553 52.2386 100.619 52.2477 100.687C52.268 100.84 52.2894 100.994 52.3113 101.148C52.3222 101.225 52.3333 101.302 52.3443 101.378C52.3447 101.383 52.3457 101.387 52.3462 101.391C52.3708 101.56 52.3959 101.729 52.4223 101.898C52.453 102.095 52.4843 102.293 52.5174 102.49C52.5178 102.495 52.5188 102.499 52.5195 102.502C52.5531 102.703 52.5869 102.902 52.6222 103.102C52.6232 103.104 52.623 103.105 52.6233 103.106C52.6419 103.213 52.6611 103.319 52.6804 103.425C52.7011 103.54 52.7224 103.654 52.7444 103.768C52.761 103.859 52.7787 103.95 52.7965 104.04C52.8103 104.116 52.8258 104.193 52.8409 104.268C52.8645 104.389 52.8889 104.509 52.9137 104.63C52.9171 104.647 52.921 104.666 52.9244 104.683C52.9393 104.756 52.9548 104.828 52.9697 104.901C52.9763 104.931 52.9823 104.96 52.9888 104.99C53.0367 105.218 53.0862 105.445 53.1373 105.672C53.2132 106.01 53.2913 106.348 53.374 106.685C53.3988 106.788 53.4241 106.89 53.4499 106.994C53.4852 107.136 53.5216 107.279 53.5575 107.421C53.6472 107.77 53.7403 108.118 53.8374 108.466C53.8614 108.552 53.8853 108.639 53.9103 108.725C53.9208 108.762 53.9307 108.799 53.9412 108.835C53.9648 108.92 53.9891 109.004 54.0134 109.088C54.0317 109.15 54.0494 109.212 54.0677 109.274C54.1119 109.423 54.1561 109.573 54.2015 109.722C54.2355 109.837 54.2707 109.952 54.3065 110.066C54.3095 110.075 54.3123 110.086 54.3153 110.095C54.3546 110.222 54.3946 110.349 54.4346 110.475C54.4483 110.52 54.463 110.565 54.4773 110.609C54.5137 110.723 54.5501 110.837 54.5871 110.95C54.5888 110.954 54.5903 110.959 54.5913 110.963C54.6146 111.035 54.6386 111.107 54.663 111.18C54.674 111.213 54.6845 111.246 54.6955 111.279C54.7084 111.318 54.7218 111.357 54.7348 111.395C54.7843 111.543 54.8343 111.691 54.8851 111.838C54.9087 111.905 54.9317 111.972 54.9552 112.039C54.9637 112.064 54.9721 112.089 54.9816 112.113C54.9916 112.143 55.0015 112.172 55.0125 112.201C55.0596 112.336 55.1077 112.471 55.1564 112.606C55.1677 112.637 55.1786 112.668 55.1899 112.699C55.2406 112.839 55.2913 112.978 55.3438 113.118C55.365 113.175 55.3862 113.232 55.4075 113.289C55.4288 113.345 55.45 113.403 55.4723 113.46C55.493 113.517 55.515 113.573 55.5367 113.63C55.5976 113.79 55.6607 113.951 55.7233 114.111C55.7487 114.177 55.7752 114.243 55.8016 114.309C55.8467 114.425 55.8935 114.539 55.9398 114.654C55.9483 114.674 55.9563 114.695 55.9647 114.715C56.013 114.835 56.0619 114.954 56.1115 115.073C56.1384 115.139 56.166 115.206 56.1942 115.272C56.2485 115.402 56.3036 115.532 56.3585 115.662C56.3983 115.754 56.4375 115.846 56.4772 115.938C56.5034 115.999 56.5297 116.059 56.5565 116.119C56.6243 116.275 56.6931 116.43 56.7626 116.585C56.7957 116.659 56.8283 116.732 56.862 116.806C56.8719 116.828 56.8813 116.85 56.8918 116.872C56.9217 116.938 56.9511 117.003 56.9816 117.068C57.0098 117.13 57.0381 117.192 57.0674 117.255C57.0811 117.285 57.0947 117.315 57.109 117.345C57.1467 117.425 57.1843 117.506 57.222 117.586C57.274 117.696 57.3264 117.807 57.3794 117.917C57.4084 117.977 57.4375 118.038 57.4665 118.098C57.5133 118.195 57.5601 118.292 57.6074 118.389C57.609 118.392 57.6102 118.395 57.6125 118.398C57.6558 118.489 57.7008 118.579 57.7454 118.669C57.8328 118.844 57.9209 119.019 58.01 119.194C58.0689 119.31 58.1284 119.425 58.1879 119.54C58.2538 119.668 58.3203 119.795 58.3874 119.922C58.4037 119.953 58.42 119.985 58.4373 120.016C58.4898 120.115 58.5428 120.215 58.596 120.314C58.6369 120.391 58.6785 120.467 58.7201 120.543C58.7482 120.596 58.7772 120.649 58.8064 120.701C58.9736 121.008 59.1444 121.313 59.3176 121.617C53.3127 121.136 47.3958 119.724 41.7993 117.416C40.5778 116.045 39.4103 114.606 38.3019 113.096C30.3829 102.308 26.7524 89.6879 27.0982 77.2723C27.232 72.4615 27.9627 67.6822 29.2723 63.0516C29.7364 61.4115 30.2726 59.7897 30.8811 58.1928C32.9073 52.8706 35.731 47.8139 39.3219 43.219C49.1291 44.3881 58.6225 48.0514 66.7754 54.0493Z" stroke="#A2CB4B" stroke-width="8" stroke-miterlimit="10" stroke-linecap="round" stroke-linejoin="round"/>
<path d="M57.1089 117.345C57.0947 117.315 57.081 117.285 57.0673 117.255C57.1187 117.365 57.17 117.476 57.2219 117.586C57.1843 117.506 57.1466 117.426 57.1089 117.345Z" stroke="#A2CB4B" stroke-width="8" stroke-miterlimit="10" stroke-linecap="round" stroke-linejoin="round"/>
<path d="M56.8917 116.872C56.8813 116.85 56.8719 116.828 56.862 116.806C56.9013 116.893 56.9412 116.98 56.9816 117.068C56.951 117.003 56.9216 116.938 56.8917 116.872Z" stroke="#A2CB4B" stroke-width="8" stroke-miterlimit="10" stroke-linecap="round" stroke-linejoin="round"/>
<path d="M56.4767 115.938C56.437 115.846 56.3977 115.754 56.358 115.662C56.4235 115.814 56.4894 115.967 56.556 116.119C56.5292 116.059 56.5029 115.999 56.4767 115.938Z" stroke="#A2CB4B" stroke-width="8" stroke-miterlimit="10" stroke-linecap="round" stroke-linejoin="round"/>
<path d="M54.6952 111.279C54.6843 111.246 54.6737 111.213 54.6627 111.18L54.7346 111.396C54.7216 111.357 54.7082 111.318 54.6952 111.279Z" stroke="#A2CB4B" stroke-width="8" stroke-miterlimit="10" stroke-linecap="round" stroke-linejoin="round"/>
<path d="M52.9239 104.683C52.9205 104.666 52.9167 104.647 52.9133 104.63C52.9377 104.749 52.9625 104.87 52.9884 104.99C52.9819 104.96 52.9758 104.931 52.9693 104.901C52.9544 104.829 52.9388 104.756 52.9239 104.683Z" stroke="#A2CB4B" stroke-width="8" stroke-miterlimit="10" stroke-linecap="round" stroke-linejoin="round"/>
<path d="M51.7773 90.9034C51.7795 90.8604 51.7805 90.8173 51.7827 90.7743C51.7797 90.841 51.7773 90.9073 51.7754 90.9741C51.7762 90.9504 51.7771 90.9266 51.7773 90.9034Z" stroke="#A2CB4B" stroke-width="8" stroke-miterlimit="10" stroke-linecap="round" stroke-linejoin="round"/>
<path d="M61.139 61.3374C61.1021 61.3934 61.065 61.4504 61.0286 61.507C61.0519 61.4706 61.0759 61.4338 61.0992 61.3974C61.1123 61.3772 61.1254 61.357 61.139 61.3374Z" stroke="#A2CB4B" stroke-width="8" stroke-miterlimit="10" stroke-linecap="round" stroke-linejoin="round"/>
<path d="M18.5643 44.493C18.3065 44.5561 18.0494 44.6217 17.792 44.6893C18.049 44.621 18.306 44.5555 18.5643 44.493Z" stroke="#A2CB4B" stroke-width="8" stroke-miterlimit="10" stroke-linecap="round" stroke-linejoin="round"/>
<path d="M18.9503 44.3985L18.9508 44.3991C18.8216 44.4304 18.6932 44.4612 18.5645 44.4931C18.6927 44.4606 18.8218 44.4293 18.9503 44.3985Z" stroke="#A2CB4B" stroke-width="8" stroke-miterlimit="10" stroke-linecap="round" stroke-linejoin="round"/>
<path d="M19.8957 44.1805C19.5796 44.2509 19.2654 44.3236 18.9502 44.3991C19.2645 44.3224 19.5798 44.2498 19.8957 44.1805Z" stroke="#A2CB4B" stroke-width="8" stroke-miterlimit="10" stroke-linecap="round" stroke-linejoin="round"/>
<path d="M110.575 29.662C111.913 31.4846 113.129 33.3596 114.223 35.2775C115.706 37.8745 116.967 40.5501 118.009 43.2788C120.691 50.2961 121.931 57.6671 121.79 64.9776C117.818 72.7746 112.012 79.7861 104.476 85.3176C88.6934 96.9035 68.989 99.3093 51.7406 93.5142C51.7402 93.4914 51.7403 93.4692 51.7404 93.447C51.7402 93.4376 51.7401 93.427 51.7399 93.4176C51.7387 93.277 51.7386 93.1365 51.739 92.9967C51.7387 92.8573 51.7395 92.7181 51.7403 92.5789C51.7399 92.5417 51.7406 92.5046 51.7414 92.4664C51.7431 92.2968 51.7454 92.1256 51.7487 91.9558C51.752 91.7858 51.7553 91.616 51.7603 91.4458C51.7644 91.2888 51.7692 91.1313 51.775 90.974C51.7758 90.9502 51.7767 90.9265 51.7769 90.9032C51.7791 90.8602 51.7801 90.8171 51.7823 90.7741C51.7882 90.6235 51.794 90.4729 51.8021 90.3226C51.808 90.1864 51.815 90.0504 51.8226 89.9139C51.8248 89.8526 51.8281 89.7915 51.8318 89.731C51.8331 89.7118 51.8339 89.6919 51.8352 89.6727C51.8408 89.5781 51.8469 89.4841 51.8525 89.3895C51.855 89.3443 51.8581 89.2988 51.8612 89.2532C51.869 89.134 51.8767 89.0147 51.8856 88.8956C51.8967 88.7364 51.9089 88.5773 51.9217 88.4177C51.9515 88.0348 51.9857 87.6526 52.0242 87.271C52.0389 87.1245 52.054 86.9786 52.0698 86.8323C52.0884 86.6531 52.1086 86.4747 52.1294 86.2958C52.1465 86.1513 52.1637 86.0068 52.1819 85.8626C52.2055 85.6652 52.2313 85.4683 52.2581 85.2715C52.2689 85.1865 52.2809 85.1018 52.2929 85.0159C52.3048 84.9311 52.3162 84.8458 52.3293 84.7601C52.3537 84.5901 52.3788 84.4197 52.4049 84.2493C52.4116 84.2021 52.4187 84.1554 52.4265 84.1083C52.4403 84.0183 52.4547 83.9278 52.4696 83.8379C52.4768 83.7874 52.4851 83.7371 52.4938 83.6873C52.5184 83.5346 52.5434 83.3824 52.5694 83.2304C52.5837 83.1449 52.5984 83.06 52.6135 82.9758C52.6287 82.8876 52.6445 82.799 52.6601 82.7115C52.6905 82.5457 52.721 82.38 52.7525 82.2144C52.7678 82.1291 52.7846 82.0446 52.8009 81.9604C52.8338 81.789 52.8678 81.6176 52.9028 81.4476C52.914 81.3894 52.9256 81.3318 52.9377 81.2748C52.9773 81.081 53.018 80.8885 53.0603 80.6958C53.0966 80.5276 53.134 80.3596 53.172 80.1922C53.2035 80.0516 53.2351 79.911 53.2688 79.7708C53.2924 79.6678 53.317 79.565 53.3418 79.4612C53.3447 79.4494 53.3478 79.4365 53.3507 79.4248C53.3744 79.3246 53.3986 79.225 53.4238 79.1257C53.4327 79.0893 53.441 79.0534 53.4504 79.0177C53.4774 78.9064 53.505 78.7957 53.5336 78.6852C53.5759 78.5174 53.6194 78.3498 53.6638 78.1834C53.7064 78.0212 53.7495 77.8596 53.7937 77.6982C53.8398 77.5276 53.8875 77.3579 53.9352 77.1881C53.9805 77.0269 54.0268 76.8658 54.0743 76.7049C54.0757 76.699 54.0778 76.6926 54.0797 76.6874C54.1037 76.6034 54.128 76.5211 54.1533 76.4389C54.1605 76.4134 54.1683 76.3885 54.1755 76.363C54.2105 76.2429 54.2471 76.1236 54.2839 76.0032C54.3442 75.806 54.4052 75.61 54.4681 75.4137C54.5299 75.2172 54.5939 75.0211 54.6583 74.8256C54.7454 74.5614 54.8341 74.298 54.9249 74.035C54.9289 74.0233 54.9335 74.0113 54.9375 73.9997C54.9773 73.8848 55.0172 73.7699 55.0576 73.6545C55.0933 73.5523 55.13 73.4503 55.1669 73.3472C55.2006 73.2541 55.2345 73.1599 55.2693 73.067C55.2917 73.0043 55.3147 72.9412 55.3381 72.8788C55.356 72.8311 55.3734 72.7827 55.3913 72.7349C55.4087 72.6865 55.4272 72.6383 55.4455 72.5911C55.4467 72.5874 55.4478 72.5837 55.4494 72.5806C55.5011 72.4425 55.5532 72.3051 55.6065 72.1679C55.6173 72.1368 55.6291 72.107 55.6409 72.0771C55.6726 71.9932 55.7059 71.91 55.7381 71.8267C55.7474 71.8025 55.7565 71.7795 55.7662 71.756C55.8183 71.6225 55.871 71.4885 55.9253 71.3552C55.9742 71.2317 56.0242 71.1084 56.0751 70.9863C56.0895 70.9508 56.1036 70.9163 56.1184 70.8814C56.1667 70.7622 56.2158 70.6443 56.2654 70.527C56.3429 70.3402 56.4224 70.1548 56.503 69.9695C56.54 69.8836 56.5769 69.7988 56.6139 69.7129C56.6613 69.603 56.7097 69.4933 56.7593 69.3838C56.7646 69.3713 56.7705 69.3583 56.7762 69.3464C56.8194 69.2492 56.862 69.1525 56.9067 69.0561C56.9161 69.0348 56.9255 69.0135 56.9353 68.9928C56.9724 68.9097 57.0105 68.8278 57.0482 68.7454C57.0582 68.7236 57.0681 68.7018 57.0788 68.6796C57.1362 68.5546 57.1943 68.4292 57.2535 68.3039C57.3344 68.131 57.4158 67.9586 57.5 67.7861C57.5193 67.7469 57.5382 67.707 57.5575 67.6678C57.63 67.5174 57.7036 67.3671 57.7782 67.2171C57.8257 67.1205 57.8737 67.0247 57.9224 66.9283C57.9648 66.8432 58.0084 66.7583 58.0513 66.6738C58.1429 66.493 58.236 66.3131 58.3302 66.1332C58.3767 66.0432 58.4243 65.9534 58.472 65.8636C58.5196 65.7737 58.5673 65.6839 58.6154 65.5947C58.663 65.5048 58.7111 65.4156 58.7597 65.3271C58.8077 65.2378 58.8565 65.1482 58.9056 65.0591C58.9434 64.99 58.9819 64.9204 59.0209 64.8503C59.0815 64.7414 59.142 64.6324 59.2043 64.5232C59.29 64.3698 59.3766 64.2177 59.4643 64.0658C59.5905 63.847 59.7185 63.6279 59.848 63.4097C59.9312 63.2687 60.0155 63.1279 60.1009 62.9872C60.3523 62.5717 60.6092 62.1598 60.8719 61.7494C60.9232 61.6684 60.9755 61.5877 61.0279 61.5069C61.0513 61.4705 61.0752 61.4337 61.0985 61.3973C61.1117 61.3771 61.1247 61.3569 61.1383 61.3373C61.2567 61.1551 61.3771 60.9743 61.4975 60.7935C61.5359 60.7355 61.5746 60.6782 61.6134 60.6208C61.7516 60.4145 61.8918 60.2095 62.0336 60.0053C62.1931 59.7756 62.3542 59.5466 62.5176 59.3179C62.5983 59.2038 62.6807 59.0904 62.7636 58.9766C62.9129 58.7708 63.0643 58.5653 63.2166 58.3611C63.2516 58.3143 63.2871 58.267 63.322 58.2202C63.3785 58.145 63.435 58.0699 63.4919 57.9953C63.5631 57.9007 63.6352 57.8064 63.7079 57.7126C63.794 57.6003 63.8805 57.4887 63.9674 57.3777C64.0309 57.2964 64.0945 57.2151 64.1585 57.1345C64.2438 57.0266 64.3292 56.9187 64.4157 56.8109C64.4905 56.7175 64.5653 56.624 64.6413 56.5308C64.7029 56.4547 64.7651 56.3782 64.8278 56.3024C64.9515 56.1509 65.0767 56.0003 65.2024 55.8503C65.352 55.6711 65.5031 55.4928 65.6551 55.3158C65.7444 55.2118 65.8347 55.108 65.9244 55.0046C65.9649 54.9575 66.0065 54.9106 66.0476 54.863C66.1015 54.8013 66.156 54.7392 66.2109 54.6777C66.2774 54.6029 66.3438 54.5282 66.4102 54.4535C66.5314 54.3183 66.6526 54.1832 66.7747 54.0492C66.8008 54.0204 66.8274 53.9912 66.8535 53.9625C69.3874 51.1899 72.2297 48.625 75.3728 46.3177C79.6135 43.2047 84.1381 40.7535 88.8217 38.9478C82.7409 32.0882 75.3151 26.9773 67.2383 23.7227C52.6333 17.8362 35.8993 18.0183 21.1417 24.8984C23.6757 22.1259 26.5181 19.561 29.6611 17.2538C53.9212 -0.555067 87.4484 3.3246 107.077 25.3404L107.077 25.341C108.299 26.7118 109.467 28.152 110.575 29.662Z" stroke="#A2CB4B" stroke-width="8" stroke-miterlimit="10" stroke-linecap="round" stroke-linejoin="round"/>
<path d="M19.8957 44.1805C19.5796 44.2509 19.2654 44.3236 18.9502 44.3991C19.2645 44.3224 19.5798 44.2498 19.8957 44.1805Z" stroke="#A2CB4B" stroke-width="8" stroke-miterlimit="10" stroke-linecap="round" stroke-linejoin="round"/>
<path d="M110.576 29.662C111.914 31.4846 113.129 33.3596 114.223 35.2775C115.706 37.8745 116.967 40.5501 118.009 43.2788C114.144 49.84 108.914 55.7421 102.387 60.5339C88.5897 70.662 71.7964 73.7751 56.2656 70.527C56.3431 70.3401 56.4226 70.1547 56.5032 69.9695C56.5402 69.8836 56.5771 69.7988 56.6141 69.7128C56.6615 69.603 56.7099 69.4933 56.7595 69.3838C56.7647 69.3712 56.7706 69.3583 56.7763 69.3464C56.8195 69.2492 56.8622 69.1525 56.9069 69.0561C56.9162 69.0348 56.9256 69.0135 56.9354 68.9928C56.9726 68.9097 57.0107 68.8278 57.0483 68.7454C57.0583 68.7236 57.0683 68.7018 57.0789 68.6795C57.1364 68.5546 57.1945 68.4292 57.2537 68.3039C57.3346 68.1309 57.416 67.9586 57.5002 67.7861C57.5195 67.7469 57.5384 67.707 57.5577 67.6678C57.6302 67.5174 57.7037 67.3671 57.7784 67.217C57.8259 67.1205 57.8739 67.0246 57.9226 66.9283C57.965 66.8432 58.0085 66.7583 58.0515 66.6738C58.1431 66.493 58.2362 66.313 58.3303 66.1332C58.3769 66.0432 58.4245 65.9534 58.4722 65.8635C58.5198 65.7737 58.5674 65.6839 58.6155 65.5947C58.6632 65.5048 58.7113 65.4156 58.7598 65.327C58.8079 65.2378 58.8567 65.1482 58.9058 65.0591C58.9436 64.99 58.982 64.9204 59.0211 64.8503C59.0816 64.7414 59.1422 64.6324 59.2045 64.5232C59.2902 64.3698 59.3768 64.2177 59.4645 64.0657C59.5907 63.847 59.7187 63.6279 59.8481 63.4097C59.9314 63.2686 60.0157 63.1278 60.1011 62.9872C60.3525 62.5717 60.6093 62.1598 60.8721 61.7494C60.9234 61.6684 60.9757 61.5876 61.0281 61.5069C61.0514 61.4705 61.0754 61.4336 61.0987 61.3972C61.1118 61.377 61.1249 61.3569 61.1384 61.3373C61.2568 61.155 61.3773 60.9743 61.4977 60.7934C61.536 60.7355 61.5748 60.6782 61.6135 60.6208C61.7518 60.4144 61.892 60.2095 62.0337 60.0053C62.1933 59.7755 62.3544 59.5466 62.5177 59.3179C62.5985 59.2038 62.6808 59.0904 62.7638 58.9766C62.913 58.7707 63.0644 58.5653 63.2168 58.3611C63.2517 58.3143 63.2873 58.267 63.3222 58.2201C63.3787 58.145 63.4352 58.0698 63.4921 57.9953C63.5632 57.9007 63.6354 57.8064 63.7081 57.7126C63.7942 57.6003 63.8807 57.4887 63.9676 57.3777C64.0311 57.2964 64.0947 57.2151 64.1586 57.1345C64.244 57.0266 64.3294 56.9186 64.4159 56.8109C64.4907 56.7175 64.5655 56.624 64.6414 56.5308C64.703 56.4547 64.7653 56.3782 64.828 56.3024C64.9517 56.1509 65.0769 56.0003 65.2026 55.8503C65.3522 55.6711 65.5033 55.4928 65.6553 55.3158C65.7446 55.2117 65.8348 55.1079 65.9245 55.0045C65.965 54.9575 66.0067 54.9106 66.0478 54.863C66.1017 54.8013 66.1562 54.7392 66.2111 54.6777C66.2775 54.6029 66.344 54.5282 66.4104 54.4534C66.5315 54.3183 66.6528 54.1831 66.7749 54.0492C66.8009 54.0204 66.8276 53.9912 66.8536 53.9624C69.3875 51.1898 72.2299 48.625 75.3729 46.3177C79.6137 43.2047 84.1383 40.7534 88.8219 38.9477C82.7411 32.0881 75.3153 26.9773 67.2385 23.7227C52.6335 17.8362 35.8995 18.0182 21.1419 24.8983C23.6759 22.1259 26.5183 19.561 29.6613 17.2538C53.9214 -0.555047 87.4486 3.32462 107.077 25.3404L107.077 25.341C108.299 26.7118 109.467 28.1521 110.576 29.662Z" stroke="#A2CB4B" stroke-width="8" stroke-miterlimit="10" stroke-linecap="round" stroke-linejoin="round"/>
</svg>
