<svg width="187" height="238" viewBox="0 0 187 238" fill="none" xmlns="http://www.w3.org/2000/svg">
<path d="M68.5951 18.413C67.5752 13.1109 65.9 7.94979 65.0338 2.63046C67.7355 0.691038 72.0888 -1.6823 74.6716 1.71637C77.481 6.02658 77.3451 11.5628 78.8778 16.3999C92.6353 14.8578 106.679 13.8529 120.313 16.8844C142.9 21.6901 163.177 35.2122 177.001 53.2457C181.513 59.0188 186.02 65.2325 186.899 72.6609C185.541 74.332 184.145 75.9973 182.708 77.617C173.426 76.1672 162.737 75.1796 154.816 81.1928C148.853 85.3109 146.752 92.6899 141.52 97.4644C137.966 99.366 133.705 97.5478 129.95 97.079C120.31 94.9756 110.261 95.1794 100.734 97.8339C115.192 142.175 126.897 187.315 139.384 232.217C148.187 230.976 156.855 228.651 165.697 227.909C171.635 227.435 172.708 236.89 166.816 237.519C147.328 241.293 127.351 243.818 108.951 251.639C103.666 254.302 99.6402 246.022 104.433 243.161C112.078 238.952 120.65 236.28 129.228 234.53C117.782 189.548 104.187 145.111 91.862 100.344C80.9163 103.93 71.2212 110.479 63.1517 118.516C60.0912 122.108 55.513 119.252 51.9546 118.147C41.7269 113.968 29.2842 113.203 19.6342 119.276C14.3323 122.175 10.4488 127.278 4.51276 129.097C2.42888 127.066 0.266577 124.789 0.375545 121.682C-3.66746 77.5672 25.3168 32.2992 68.5813 18.4124L68.5951 18.413ZM140.241 82.4046C146.878 70.8432 160.938 65.0812 174.076 66.2142C157.45 39.8238 126.437 22.9262 94.6074 25.0189C114.481 39.8637 130.527 59.8004 140.24 82.4014L140.241 82.4046ZM62.4428 105.104C81.1475 90.0187 106.832 82.4289 130.795 86.8557C120.523 62.0196 101.816 39.6098 77.7796 26.5396C63.3008 45.7701 60.8634 71.0292 60.8103 94.2209C61.5088 97.7239 59.9828 102.265 62.446 105.104L62.4428 105.104ZM52.2067 107.706C48.6808 82.533 50.9791 55.5123 62.5358 32.501C30.5151 45.529 11.0188 79.5493 9.88212 112.737C22.0858 104.522 38.4075 101.83 52.21 107.705L52.2067 107.706Z" fill="#A2CB4B"/>
</svg>
