<svg width="164" height="164" viewBox="0 0 164 164" fill="none" xmlns="http://www.w3.org/2000/svg">
<path d="M88.7931 163.701C117.671 161.338 144.952 143.062 156.697 116.564C167.083 94.2846 166.162 67.612 155.394 45.6068C137.534 9.58986 90.9814 -9.85479 53.0735 5.04867C20.1745 17.2242 -1.99846 51.5784 0.142583 86.3556C1.22184 107.515 11.5972 127.666 26.7434 142.366C43.2548 157.582 66.3342 165.691 88.7938 163.704L88.7931 163.701ZM126.901 140.133C113.443 151.134 95.5138 156.883 78.1251 154.647C71.2428 151.43 67.0263 144.454 63.4363 138.081C52.3356 115.617 50.0127 89.3286 56.1494 65.1427C62.7958 67.1692 70.0579 66.0291 75.821 62.2043C99.8422 76.6676 119.559 98.6988 129.313 125.015C129.79 129.964 131.914 136.838 126.905 140.135L126.901 140.133ZM62.3633 34.7507C65.8597 32.8885 71.1418 32.4735 73.6843 36.1165C77.9153 42.3199 76.0094 52.0774 69.3039 55.848C64.47 59.0645 57.3889 58.3319 53.8162 53.579C49.985 46.3129 56.0031 38.1676 62.364 34.7533L62.3633 34.7507ZM155.296 74.1442C157.658 94.1175 150.574 114.071 138.563 129.894C132.094 98.1595 107.955 72.8393 81.3913 55.5585C84.2687 49.8499 85.1483 43.2542 83.6618 37.025C101.625 34.4293 121.087 34.601 137.398 43.4745C148.634 49.2695 154.817 61.9201 155.292 74.1423L155.296 74.1442ZM84.5124 8.36758C105.196 9.49876 125.572 19.217 138.788 35.1976C120.514 26.3387 98.8898 24.5551 79.3372 29.9355C76.4997 28.2723 73.6356 26.6276 70.4931 25.6261C73.7575 19.1884 76.3606 9.80658 84.5151 8.36687L84.5124 8.36758ZM71.1375 8.43818C67.7229 12.5303 65.7415 17.4971 63.0296 22.0175C60.358 26.846 54.6404 28.5096 50.9668 32.3744C47.2688 35.6622 45.6359 40.4141 43.4386 44.6669C29.0736 50.4374 16.291 60.5784 8.74832 74.1727C12.3291 41.8782 38.2434 12.8584 71.1375 8.43818ZM10.5873 98.2587C9.66281 90.8783 12.7038 83.646 16.2477 77.3419C23.1874 67.2041 32.4481 57.6027 44.5643 53.9779C45.8077 56.406 47.2211 58.7321 48.8509 60.9267C39.2427 91.5255 44.8165 126.567 62.5889 153.236C37.0885 145.65 16.8056 123.886 10.5846 98.2594L10.5873 98.2587Z" fill="url(#paint0_linear_76_1509)"/>
<defs>
<linearGradient id="paint0_linear_76_1509" x1="82.0927" y1="160.638" x2="82.0927" y2="-54.7467" gradientUnits="userSpaceOnUse">
<stop offset="0.168269" stop-color="#A2CB4B"/>
<stop offset="1" stop-color="#DFE782"/>
</linearGradient>
</defs>
</svg>
