<svg width="1200" height="76" viewBox="0 0 1200 76" fill="none" xmlns="http://www.w3.org/2000/svg">
<path d="M284.337 0C322.354 1.04672 322.355 43.863 361.868 43.8633C401.382 43.8633 401.233 0 440.896 0C480.56 3.20423e-05 480.56 43.8633 520.074 43.8633H520.224C559.738 43.8633 560.486 6.06078e-05 600 0C639.514 0 639.065 43.8633 678.579 43.8633C718.093 43.8632 717.943 0.000324595 757.606 0C797.27 0 797.72 43.863 836.784 43.8633C875.849 43.8633 876.449 1.19626 914.466 0H915.962C953.979 1.04672 953.979 43.8631 993.493 43.8633C1033.01 43.8633 1032.86 0 1072.52 0C1112.19 0.000100166 1112.19 43.8633 1151.7 43.8633H1151.85C1191.36 43.8633 1192.11 0 1231.62 0V118.43H-31.625V0C7.88898 0 7.44012 43.8633 46.9541 43.8633C86.468 43.8632 86.3188 0 125.982 0C165.645 0.000327313 166.095 43.863 205.159 43.8633C244.224 43.8633 244.824 1.19626 282.841 0H284.337Z" fill="url(#paint0_linear_76_1548)"/>
<defs>
<linearGradient id="paint0_linear_76_1548" x1="451.382" y1="118.368" x2="451.382" y2="-21.9314" gradientUnits="userSpaceOnUse">
<stop offset="0.23" stop-color="#DF1867"/>
<stop offset="1" stop-color="#F286B2"/>
</linearGradient>
</defs>
</svg>
