<svg width="340" height="328" viewBox="0 0 340 328" fill="none" xmlns="http://www.w3.org/2000/svg">
<path d="M230.787 460.912C217.44 436.065 199.796 401.744 184.478 366.428C163.568 318.349 148.943 265.919 143.322 245.509C130.66 199.327 127.412 124.315 127.261 123.834C127.288 122.241 125.875 121.102 124.283 121.074C122.691 121.046 121.476 122.22 121.449 123.812C120.79 134.315 119.761 138.598 119.178 140.102C118.636 139.216 117.627 137.685 117.174 136.243C116.721 134.802 115.218 134.218 113.702 134.43C112.261 134.883 111.286 135.981 111.499 137.498C113.304 157.523 110.635 159.946 110.635 159.946C109.839 159.932 107.959 158.147 106.874 156.375C106.257 155.249 104.829 154.906 103.629 155.283C102.428 155.66 101.693 156.683 101.591 158.035C101.166 173.481 99.4913 178.231 98.8326 179.494C98.0503 178.684 96.6503 176.748 95.8062 174.901C95.3532 173.459 93.8504 172.875 92.4093 173.328C90.9683 173.781 90.0694 175.119 90.2067 176.396C92.3414 195.789 84.5873 202.186 80.971 204.114C77.7044 199.596 69.7507 185.199 77.7855 157.858C85.2371 132.021 104.321 119.689 112.754 115.456C113.955 115.078 115.321 114.385 116.926 113.617C118.367 113.164 118.875 111.421 118.347 109.739C117.894 108.297 116.075 107.548 114.71 108.241C114.469 108.317 112.548 108.92 109.892 110.547C107.086 111.692 105.164 112.296 103.964 112.673C104.471 110.93 103.613 109.879 102.907 109.309C102.2 108.739 101.328 108.485 100.608 108.712C99.0912 108.924 98.1168 110.022 96.1543 113.015C95.5847 113.722 95.0907 114.669 94.6859 115.06C85.9026 125.74 83.0342 125.849 83.1097 126.089C83.1097 126.089 82.8832 125.368 82.5813 124.407C82.4303 123.927 82.5195 123.371 82.6087 122.815C82.8625 121.943 83.1438 119.478 81.1743 118.249C78.8137 116.615 76.8649 118.811 75.321 120.616C74.9161 121.007 74.5866 121.639 74.3465 121.714C65.9199 130.17 62.3792 132.338 61.1783 132.715C61.0273 132.235 61.1165 131.679 61.3704 130.807C61.2194 130.327 61.789 129.62 61.8781 129.064C62.2967 127.876 62.9554 126.613 62.1868 125.007C61.8848 124.045 60.382 123.462 59.586 123.448C57.7538 123.495 56.6147 124.909 54.7414 127.346C54.2474 128.293 53.4376 129.075 52.868 129.782C43.2887 140.448 34.9375 139.904 31.5269 139.127C32.1787 133.642 35.8014 117.456 60.1069 102.428C74.2702 93.754 87.1093 92.6243 96.9635 93.7524C99.3241 95.3868 103.201 96.8087 108.911 98.183C110.654 98.6914 112.877 99.0489 115.1 99.4064C116.528 99.7499 117.818 98.8166 118.477 97.5536C118.895 96.3661 118.367 94.6841 117.344 93.9494C117.344 93.9494 115.059 92.5553 111.422 91.0579C108.416 89.8902 104.615 88.7086 100.408 87.9181C100.889 87.7672 101.609 87.5409 102.33 87.3145C103.53 86.9372 104.971 86.4845 106.111 85.0706C106.605 84.1234 106.707 82.7711 106.165 81.8854C105.081 80.114 103.324 80.4019 100.216 80.5865C99.4952 80.8129 98.459 80.8745 97.9032 80.7851C88.9823 80.9478 85.9766 79.78 85.0296 79.2856C85.0296 79.2856 85.4346 78.8943 85.5992 78.5786C85.8394 78.5031 86.3198 78.3523 86.4845 78.0365C88.4951 76.8768 89.3939 75.5384 88.8655 73.8564C88.488 72.655 87.3901 71.6799 86.3539 71.7414C86.3539 71.7414 83.41 71.6103 82.0581 71.507C73.6313 70.7225 70.1453 69.7057 68.8826 69.0464C70.1727 68.1131 72.2587 67.1937 72.2587 67.1937C73.6998 66.741 74.283 65.2377 74.0702 63.7206C73.6173 62.2789 72.5193 61.3038 71.0028 61.5162C68.9304 61.6393 66.858 61.7624 64.9503 61.5698C53.8953 60.8189 49.9974 55.9715 48.6112 53.239C52.797 50.6039 65.238 44.8472 87.4031 52.4036C114.873 61.7255 121.647 89.1656 121.722 89.4059C122.175 90.8476 123.513 91.7472 124.79 91.6102C126.306 91.3978 127.281 90.2996 127.308 88.707C127.308 88.707 127.342 63.6162 147.145 41.8183C162.887 24.7286 176.522 23.6129 181.373 23.9366C181.318 27.1219 180.173 33.5539 169.955 39.668C169.475 39.8189 168.754 40.0453 168.034 40.2717C165.632 41.0263 163.786 41.8702 163.745 44.2591C163.567 45.3712 164.5 46.662 165.447 47.1565C166.709 47.8158 167.986 47.6788 169.262 47.5418C169.743 47.3909 170.463 47.1645 171.094 47.4941C170.12 48.5923 167.766 51.1798 161 55.6815C160.52 55.8324 160.04 55.9833 159.635 56.3745C157.384 57.6097 155.778 58.3782 155.902 60.4514C155.964 61.488 156.581 62.6139 157.528 63.1084C158.475 63.6029 159.587 63.7816 160.383 63.7955C160.863 63.6446 161.495 63.9743 162.126 64.3039C161.632 65.2512 159.278 67.8386 149.719 72.6898C149.479 72.7653 148.999 72.9162 148.519 73.0671C146.597 73.6707 144.511 74.5902 144.786 77.1439C145.163 78.3454 146.337 79.5607 147.688 79.6639C147.688 79.6639 147.929 79.5885 148.169 79.513C147.839 80.1445 147.181 81.4075 145.801 82.8968C138.301 88.4212 134.541 94.0907 134.136 94.4819C133.237 95.8203 133.45 97.3374 134.548 98.3125C135.646 99.2876 137.238 99.3154 138.528 98.3821C143.702 93.8525 147.346 90.3317 149.624 87.504C157.364 81.9041 169.009 76.1335 184.044 76.9539C207.431 78.3186 216.894 88.2816 219.694 92.154C216.949 94.3364 209.957 98.1172 195.662 91.256C194.4 90.5967 192.719 91.1249 192.06 92.3879C191.326 93.4105 191.374 95.2434 192.472 96.2185C193.57 97.1935 194.427 98.244 194.97 99.1297C193.137 99.1774 188.766 98.7027 177.841 95.0069C176.654 94.5879 175.213 95.0406 174.479 96.0633C173.745 97.086 173.642 98.4383 174.5 99.4888C175.357 100.539 175.81 101.981 176.037 102.702C174.836 103.079 170.78 102.769 158.456 97.1373C156.953 96.5535 155.272 97.0817 154.613 98.3447C153.954 99.6076 154.242 101.365 155.821 102.189C154.38 102.642 151.752 102.676 147.456 102.441C143.881 101.981 141.493 101.939 141.012 102.09C139.42 102.062 138.281 103.476 138.178 104.828C138.151 106.421 139.084 107.711 140.916 107.664C142.824 107.856 144.732 108.049 146.324 108.077C154.826 109.102 172.27 113.39 185.439 130.108C199.932 148.523 198.904 162.046 197.785 166.886C194.21 166.425 186.696 163.506 182.496 148.457C182.043 147.015 180.704 146.116 179.188 146.328C177.671 146.541 176.697 147.639 176.67 149.232C176.567 150.584 176.539 152.177 176.045 153.124C174.872 151.908 172.147 148.276 167.474 137.6C167.096 136.399 165.834 135.74 164.557 135.877C163.281 136.014 162.231 136.872 162.053 137.984C161.634 139.171 161.051 140.674 160.722 141.306C159.939 140.496 157.126 137.42 153.289 124.369C152.157 120.764 149.604 121.038 148.884 121.265C146.166 121.855 145.645 124.394 145.775 130.689C144.074 127.792 141.678 123.529 139.99 119.835C139.613 118.633 138.034 117.809 136.593 118.262C135.393 118.639 134.418 119.737 134.315 121.09C134.466 121.57 135.381 174.876 160.115 264.522C176.826 325.272 223.896 407.901 252.465 455.158L258.38 453.827C229.962 407.051 182.501 324.017 165.474 263.102C148.008 199.949 142.407 155.244 140.615 134.423C144.65 140.547 146.647 140.184 147.924 140.047C149.605 139.518 150.504 138.18 150.847 136.752C154.134 144.696 157.023 148.012 160.688 147.917C162.28 147.944 163.57 147.011 164.544 145.913C170.466 158.044 173.85 160.414 177.047 159.673C178.008 159.371 178.729 159.145 179.538 158.362C187.3 174.668 199.508 173.209 199.988 173.058C200.949 172.756 201.909 172.454 202.328 171.267C202.582 170.395 209.821 152.28 189.714 126.917C180.909 115.691 170.341 109.771 161.324 106.268C161.565 106.193 161.729 105.877 161.894 105.561C172.174 109.724 177.506 109.897 180.024 106.993C180.998 105.895 181.266 104.227 181.129 102.95C194.201 106.763 198.044 105.556 199.842 102.879C200.336 101.932 200.59 101.06 200.603 100.264C217.718 105.183 224.895 95.2718 225.225 94.6403C225.719 93.6931 225.897 92.581 225.355 91.6954C225.129 90.9745 216.194 73.4535 183.9 71.4553C171.809 70.766 161.646 73.6948 153.768 78.0178C153.693 77.7775 153.617 77.5372 153.542 77.2969C163.506 72.0546 167.794 68.0671 167.623 64.161C167.561 63.1244 167.273 61.367 164.987 59.9729C174.093 53.68 177.511 49.4384 176.694 45.9989C176.392 45.0378 176.09 44.0767 174.827 43.4174C189.574 33.2403 186.355 21.3154 186.204 20.8348C185.902 19.8737 185.12 19.0635 184.008 18.8847C183.137 18.6305 164.101 14.3151 142.108 38.3847C129.29 52.18 124.254 67.2264 122.092 77.1455C117.165 67.3415 107.05 53.6232 88.4461 47.3239C57.7306 36.9098 43.0939 49.9563 42.4489 50.4229C41.6392 51.2053 41.3852 52.0771 41.447 53.1137C41.598 53.5943 44.3365 65.6701 62.3017 67.4179C61.643 68.6809 61.7048 69.7175 62.0068 70.6786C63.1391 74.2829 67.9633 76.1993 79.1693 77.4307C78.0165 79.6409 78.545 81.3229 78.847 82.284C80.144 85.5726 84.8172 87.0084 93.6489 87.4017C93.6489 87.4017 93.5597 87.9578 93.395 88.2735C83.136 87.5366 70.2831 89.4626 56.6001 97.9855C24.3278 117.893 25.2069 140.849 25.1932 141.645C25.255 142.682 25.7971 143.567 26.7441 144.062C27.3754 144.391 40.1668 150.669 55.1602 135.398C55.6131 136.84 56.471 137.89 57.6582 138.309C61.4461 140.287 66.9975 136.959 76.6386 127.33C77.5445 130.214 79.1984 131.278 80.6258 131.622C81.8129 132.041 83.0892 131.904 84.5303 131.451C79.4799 138.054 74.958 146.338 71.836 156.559C61.0978 192.933 76.8195 209.378 77.5263 209.948C78.3086 210.758 79.1802 211.013 80.3811 210.635C81.1016 210.409 94.9425 206.588 95.8683 185.177C96.8908 185.912 98.0025 186.091 99.519 185.878C102.717 185.138 105.715 182.084 106.648 164.894C108.227 165.719 110.045 166.467 111.891 165.623C115.974 164.341 117.751 158.238 117.401 146.204C118.032 146.534 118.828 146.548 119.549 146.321C120.509 146.02 121.47 145.718 122.28 144.935C124.14 171.015 128.629 215.541 137.318 247.396C142.788 267.325 157.248 320.071 178.55 368.555C193.641 403.15 211.133 436.991 224.241 461.913L230.156 460.582L230.787 460.912Z" fill="#A2CB4B"/>
<path d="M266.414 201.404C266.627 201.539 266.892 201.536 267.122 201.625L267.122 201.625C267.324 201.65 267.526 201.675 267.745 201.654C267.539 208.343 268.63 211.673 271.206 212.669C272.034 212.989 273.033 213.005 273.872 212.748C274.266 220.62 275.623 223.948 278.405 224.547C278.947 224.651 279.432 224.627 279.889 224.539C280.678 236.584 288.765 238.917 289.133 239.059C289.95 239.269 290.882 239.048 291.488 238.436C291.896 238.065 301.473 228.336 295.545 206.743C294.064 201.411 291.869 196.967 289.372 193.305C289.638 193.302 289.875 193.235 290.113 193.168L290.113 193.168C290.761 192.996 291.781 192.544 292.509 191.345C297.811 196.779 300.98 198.427 303.486 197.28C303.978 197.1 304.45 196.701 304.865 196.174C313.507 204.591 321.077 201.013 321.413 200.826C322.196 200.442 322.718 199.639 322.791 198.768C322.802 198.19 323.478 184.544 304.691 172.417C299.173 168.909 293.915 167.193 289.2 166.534C290.723 166.012 291.713 165.231 292.203 164.099C292.463 163.565 292.673 162.747 292.441 161.706C298.699 161.111 301.441 159.897 302.129 157.572C302.207 157.232 302.293 156.736 302.241 156.187C312.355 154.915 314.078 147.861 314.185 147.585C314.349 146.749 314.11 145.864 313.452 145.239C313.109 144.895 304.399 136.927 286.058 142.793C275.994 145.988 270.101 152.752 266.795 158.296C265.445 152.486 262.442 144.662 255.891 137.265C243.113 122.86 231.527 125.202 231.052 125.336C230.184 125.529 229.514 126.169 229.24 127.015C229.133 127.291 227.043 134.203 235.083 140.484C234.796 140.955 234.618 141.415 234.493 141.737L234.493 141.737C233.916 144.052 235.657 146.523 240.682 150.21C239.841 151.154 239.687 152.1 239.647 152.613C239.584 154.281 240.509 155.855 242.673 157.643C239.226 156.575 235.308 155.906 230.896 156.104L231.207 156.119C211.983 156.884 206.463 167.335 206.285 167.795C205.936 168.559 205.984 169.53 206.45 170.239C206.655 170.529 210.681 176.527 220.61 174.232L220.61 174.232C220.705 174.533 220.8 174.834 220.987 175.171C222.286 177.418 225.284 177.731 231.685 176.081C231.794 176.757 232.03 177.377 232.486 177.977C233.517 179.274 235.181 179.759 237.695 179.409C234.038 181.485 230.262 184.414 226.866 188.548C214.656 203.446 218.786 214.508 218.984 214.955C219.305 215.766 220.026 216.363 220.925 216.499C221.283 216.531 228.419 217.492 233.335 208.605C233.593 208.758 233.915 208.882 234.255 208.96C236.807 209.471 239.073 207.439 242.082 201.569C242.627 201.938 243.271 202.187 244.004 202.206C246.231 202.327 248.053 200.757 249.905 196.926C250.258 197.379 250.728 197.667 251.362 197.806L251.395 197.814C252.162 198.006 253.159 198.255 254.809 196.548C253.321 209.562 249.421 234.283 239.455 268.134C229.831 300.689 204.69 344.114 187.561 371.599L192.253 373.413C209.534 345.669 234.548 302.3 244.197 269.544C259.496 217.66 260.568 187.669 260.627 186.423C260.65 185.268 259.841 184.215 258.73 183.944C257.555 183.702 256.407 184.21 255.888 185.278C255.262 186.623 254.527 187.978 253.863 189.149C253.668 187.328 253.103 186.053 251.497 185.696C250.367 185.471 248.816 185.929 248.033 187.953C246.307 193.102 245.117 195.498 244.378 196.587L244.178 195.875C243.946 194.833 243.094 194.028 242.021 193.931C240.966 193.787 239.956 194.349 239.519 195.343C237.742 199.257 236.513 201.478 235.675 202.688C235.665 202.578 235.626 202.405 235.662 202.313C235.611 201.077 234.738 200.052 233.527 199.901C232.334 199.704 231.161 200.414 230.809 201.6C228.558 208.926 225.092 210.918 223.083 211.463C222.671 208.29 222.917 201.088 230.603 191.738C238.271 182.434 248.118 180.212 252.984 179.661C254 179.631 255.08 179.572 256.224 179.486C257.523 179.406 258.527 178.314 258.512 176.986C258.496 175.658 257.468 174.626 256.176 174.549C256.02 174.542 254.618 174.476 252.468 174.702C250.985 174.711 249.877 174.705 249.052 174.651C249.283 174.053 249.284 173.366 248.956 172.71C248.338 171.572 246.958 171.039 245.746 171.575C240.853 173.702 238.324 174.364 237.035 174.553C237.17 174.341 237.322 174.082 237.439 173.916C238.043 173.039 238.066 171.885 237.452 171.012C236.791 170.123 235.697 169.806 234.684 170.101C230.642 171.394 228.166 171.918 226.657 172.128C226.739 172.053 226.838 171.933 226.92 171.859C227.817 171.042 227.975 169.676 227.304 168.676C226.633 167.676 225.31 167.271 224.208 167.796C217.266 170.982 213.451 169.772 211.725 168.629C213.776 166.196 219.272 161.552 231.411 161.063C239.952 160.716 246.447 164.02 250.725 167.313C252.128 169.018 254.167 171.129 257.101 173.797C257.999 174.62 259.419 174.64 260.362 173.841C261.323 172.996 261.527 171.647 260.828 170.584L260.823 170.576C260.587 170.241 258.307 167.004 254.053 163.629C253.756 163.302 253.505 162.994 253.346 162.721C254.112 162.382 254.708 161.661 254.808 160.854C255.141 158.761 253.347 158.068 252.243 157.641L251.599 157.392C248.218 155.609 246.499 154.31 245.629 153.551C246.068 153.509 246.681 153.429 247.291 153.083C248.092 152.652 248.649 151.757 248.63 150.85C248.629 149.218 247.332 148.5 246.075 147.803L246.057 147.794C245.799 147.641 245.495 147.471 245.329 147.353C243.214 145.848 241.892 144.756 241.022 143.996C241.489 144.018 242.038 143.966 242.63 143.666C243.477 143.253 244.116 142.284 244.068 141.314C244.011 139.547 242.575 138.886 241.149 138.334C240.799 138.146 240.385 137.986 240.155 137.897L240.155 137.897C235.422 134.957 234.316 131.938 234.121 130.118C237.318 130.191 244.404 131.555 252.422 140.63C263.493 153.159 263.281 167.249 263.227 167.387C263.168 168.633 264.069 169.722 265.326 169.89C266.537 170.041 267.745 169.239 268.052 168.036C268.191 167.402 272.204 152.508 287.771 147.527C299.313 143.792 306.064 146.296 308.848 147.848C307.83 149.253 305.443 151.186 300.327 151.428C299.293 151.505 298.138 151.481 296.864 151.359C295.699 151.226 294.582 152.063 294.294 153.221C294.005 154.378 294.587 155.608 295.737 156.053L296.105 156.195C294.954 156.437 293.144 156.742 290.325 156.922L287.836 157.07C286.802 157.146 285.876 157.899 285.595 158.9C285.374 159.608 285.308 161.01 286.959 162.072C285.89 162.24 284.115 162.453 281.138 162.36C280.826 162.345 280.359 162.323 279.909 162.255C278.093 162.029 276.617 161.881 275.708 163.275C275.204 164.032 275.217 165.094 275.693 165.913C276.011 166.459 276.463 166.793 276.888 167.062C275.372 167.428 274.04 167.865 272.881 168.263C270.656 169.095 269.373 169.815 269.228 169.918C268.2 170.525 267.766 171.785 268.182 172.898C268.58 174.056 269.722 174.657 270.902 174.478C272.255 174.261 273.47 173.99 274.511 173.758C277.826 172.978 280.143 172.181 281.671 171.238C287.224 170.688 294.477 171.483 302.265 176.503C314.916 184.672 317.451 193.16 317.986 196.699C315.9 196.897 311.893 196.458 307.225 191.164C306.928 190.838 306.593 190.338 306.257 189.838L306.257 189.838C305.148 188.193 304.431 187.175 302.902 187.166C302.105 187.175 301.176 187.662 300.708 188.327C299.916 189.555 300.434 190.813 300.717 191.45C300.773 191.578 300.812 191.752 300.868 191.879C299.751 191.077 297.827 189.487 294.749 186.235C294.555 186.054 294.396 185.781 294.173 185.537C293.364 184.484 291.785 182.551 289.768 183.939C288.141 185.002 288.491 186.83 288.59 187.397C288.61 187.617 288.649 187.79 288.642 187.946C287.793 187.406 286.082 185.952 283.135 182.222C282.885 181.913 282.595 181.431 282.288 180.995C281.105 179.268 280.554 178.368 279.251 178.182C278.6 178.089 277.824 178.317 277.289 178.745C277.044 178.968 276.537 179.459 276.362 180.185C275.746 180 274.982 179.651 274.034 179.232C272.375 178.326 271.317 177.917 271.133 177.846C269.891 177.366 268.523 177.895 267.997 179.119C267.489 180.297 267.954 181.693 269.142 182.312C270.027 182.759 270.819 183.171 271.537 183.502C276.164 186.031 286.844 193.279 290.897 207.96C294.884 222.404 291.131 230.471 289.178 233.471C287.183 232.065 283.851 228.239 285.076 218.507C285.227 217.296 284.499 216.169 283.314 215.816C282.156 215.527 280.944 216.064 280.408 217.178C280.184 217.62 279.879 218.137 279.609 218.561C279.243 217.045 278.795 213.964 278.75 207.653C278.784 206.609 278.077 205.701 277.065 205.31C276.035 204.965 274.941 205.335 274.291 206.194C273.957 206.647 273.496 207.156 273.106 207.481C272.772 206.294 272.37 203.231 273.162 195.711C273.313 194.5 272.494 193.337 271.336 193.048C270.179 192.759 268.903 193.324 268.459 194.474L268.263 194.98C268 193.609 267.689 191.268 267.572 187.468C267.539 186.186 266.464 185.136 265.154 185.106C263.844 185.075 262.748 186.132 262.672 187.425C262.667 187.846 260.045 231.146 252.22 257.68L252.079 258.155C248.528 270.155 239.706 299.967 227.235 327.235C218.946 345.394 209.518 363.219 201.92 376.992L206.642 378.817C215.251 362.503 223.939 346.243 231.611 329.456C244.302 301.776 253.205 271.543 256.66 259.812L256.756 259.487C262.078 241.344 264.996 216.561 266.414 201.404Z" fill="#A2CB4B"/>
</svg>
