<svg width="355" height="307" viewBox="0 0 355 307" fill="none" xmlns="http://www.w3.org/2000/svg">
<g clip-path="url(#clip0_76_1551)">
<path d="M135.331 2.02699C136.259 1.86037 162.346 -7.51464 197.681 20.9813C219.254 38.4252 225.293 61.0974 226.73 76.0509C234.453 64.4304 248.931 47.8419 272.61 36.3633C313.463 16.6414 336.596 31.6371 337.407 32.3433C338.799 33.1262 339.518 34.4063 339.307 35.8525C339.222 36.4346 337.659 53.331 313.01 59.0679C313.981 60.6777 314.066 62.1658 313.898 63.3228C313.138 68.5291 306.595 72.0504 291.315 75.543C293.341 78.1841 292.667 80.7471 292.456 82.1933C290.767 87.5663 283.127 90.3455 267.467 92.3102C267.383 92.8886 267.34 93.1786 267.298 93.4678C279.539 92.2104 294.441 93.3861 310.018 100.262C351.642 118.71 354.347 145.643 354.178 146.8C354.263 148.287 353.756 149.692 352.448 150.396C351.771 150.894 337.462 160.127 317.326 145.243C316.862 146.359 316.102 147.434 315.089 148.179C311.332 151.2 305.422 150.383 290.478 139.168C289.887 141.152 288.748 142.765 286.764 143.966C281.868 146.534 274.775 143.487 263.63 133.093C263.292 133.341 262.912 133.878 262.321 133.797C272.2 142.541 282.671 155.498 288.667 174.328C302.052 216.901 283.187 236.719 282.468 237.506C281.708 238.581 280.147 238.956 278.669 238.752C277.78 238.629 261.193 234.561 259.375 209.818C258.404 210.274 257.18 210.401 255.703 210.196C251.017 209.253 247.765 204.672 246.244 186.166C244.26 187.366 242.15 187.369 240.124 186.794C235.523 185.272 233.031 179.616 232.945 167.8C231.763 169.702 230.075 170.944 227.416 170.576C225.643 170.331 222.687 169.922 220.533 159.886C216.355 147.214 218.039 139.776 218.083 139.481C218.673 137.497 221.207 136.667 222.98 136.912C224.753 137.158 226.315 138.849 226.357 140.626C226.738 146.285 227.582 152.894 228.427 157.437C231.423 149.294 233.66 146.357 237.501 146.889C238.683 147.052 241.85 148.08 241.724 153.079C240.206 171.754 242.106 177.329 242.824 178.61C243.795 178.154 245.272 176.293 246.369 174.969C247.213 173.316 249.071 172.982 250.844 173.227C252.575 173.761 253.883 175.123 253.926 176.9C254.35 192.598 256.165 198.751 257.052 200.94C258.107 199.905 258.994 197.963 259.838 196.309C260.682 194.655 262.624 193.743 264.692 194.029C266.423 194.564 267.985 196.256 267.69 198.28C265.751 219.848 274.32 227.231 278.499 229.58C282.298 224.204 290.823 207.087 281.111 176.53C272.244 148.449 251.684 134.391 241.046 128.788C238.808 127.593 236.529 126.688 233.996 125.452C232.054 124.298 231.168 122.11 232.054 120.167C232.94 118.224 235.177 117.353 237.203 117.928C237.752 118.299 240.918 119.328 245.393 121.717C251.092 123.981 254.511 125.339 256.58 125.625C255.609 124.015 255.651 121.66 257.381 120.129C259.111 118.598 261.475 118.925 263.08 120.327C276.209 133.652 281.275 136.124 283.048 136.37C283.217 135.213 282.921 133.105 282.584 131.288C282.246 129.471 283.089 127.818 284.44 126.824C285.79 125.831 287.859 126.117 289.21 127.189C301.875 137.499 307.532 140.052 309.812 140.957C309.685 139.759 308.798 137.57 308.123 136.001C307.194 134.103 307.785 132.119 309.473 130.877C311.119 129.924 313.483 130.251 314.792 131.612C329.652 147.538 341.008 146.158 345.736 144.747C343.962 138.304 336.572 120.757 306.853 107.498C287.35 98.6027 269.03 100.199 256.155 103.729C251.597 106.05 245.138 108.992 235.936 112.146C234.037 112.768 231.715 112.152 230.786 110.253C229.857 108.354 230.448 106.37 232.136 105.128C232.811 104.632 240.789 99.5378 253.368 95.9664C255.985 94.5579 257.631 93.6052 258.349 92.8192C258.055 92.7784 257.76 92.7385 257.758 92.7382C256.069 91.9145 255.183 89.7259 255.436 87.9904C256.195 84.8496 259.53 84.7204 262.231 84.7991C262.822 84.8808 263.709 85.0031 264.004 85.044C279.031 83.2869 283.253 81.2156 284.604 80.222C284.317 80.1822 284.308 80.181 284.308 80.1809C283.506 79.4798 283 78.819 282.113 78.6964C280.973 78.2436 279.833 77.7905 278.82 76.47C277.765 75.4387 277.723 73.6624 278.229 72.2571C279.495 69.7766 281.944 69.5249 285.321 69.1069C285.954 68.8994 286.882 68.7331 287.473 68.8148C298.954 66.5671 303.471 64.5359 305.159 63.294C304.357 62.5929 303.471 62.4699 302.584 62.3472C301.149 61.8537 299.081 61.5674 297.814 59.917C296.464 58.8449 296.463 56.7795 296.969 55.3741C298.277 52.6041 300.979 52.6827 304.61 52.5947C305.834 52.469 307.058 52.343 307.649 52.4247C324.027 49.674 329.092 41.8172 330.569 37.8901C324.068 34.9251 305.873 29.4564 276.368 43.6704C239.409 61.5642 226.617 93.4157 226.563 93.7334C225.677 95.6763 223.735 96.5889 221.667 96.3028C219.64 95.7274 218.416 93.7868 218.711 91.762C218.757 91.4489 223.763 52.9115 192.532 27.3508C167.498 6.77198 148.375 7.66839 141.537 9.08311C141.875 12.9664 144.874 21.3485 158.72 27.6902C160.957 28.8849 163.828 29.872 166.698 30.8592C168.429 31.3938 169.653 33.3342 169.357 35.359C169.104 37.0944 167.332 38.9144 165.263 38.6282C165.225 38.6304 162.21 38.8023 160.029 39.3802C161.634 40.7826 165.687 43.9991 176.113 48.9825C177.793 49.802 181.437 51.4776 181.474 51.4947C183.163 52.3185 184.135 53.9283 183.882 55.6637C183.544 57.9777 181.813 59.5095 178.436 59.9276C177.803 60.135 177.17 60.3423 176.875 60.3016C176.539 60.5488 175.868 61.0415 175.862 61.0464C176.58 62.3262 180.084 65.1718 191.819 69.451C192.368 69.822 193.508 70.2753 194.69 70.4388C199.038 71.6304 201.359 72.2466 201.866 74.9724C202.288 76.2112 201.739 77.906 200.389 78.8995C198.321 80.6786 195.957 80.3515 194.184 80.1063C193.297 79.9837 192.411 79.8608 191.482 80.0274C197.055 83.159 201.361 86.7062 204.57 89.5108C208.58 93.0165 210.86 95.9881 210.86 95.9881C212.126 97.6388 212.084 99.994 210.691 101.277C209.298 102.559 207.103 103.14 205.457 102.028C202.713 100.173 200.223 98.6479 198.027 97.1639C191.189 92.3817 186.629 88.5046 184.391 85.2442C172.36 78.8582 154.714 73.7614 131.793 77.9677C92.4518 85.2142 79.1563 104.031 75.78 110.646C79.5795 113.533 90.092 117.938 108.242 109.235C109.213 108.779 110.564 107.786 111.872 107.082C115.544 104.639 117.528 103.438 120.103 104.384C121.496 105.167 122.805 106.528 122.932 107.726C123.481 110.163 121.75 111.694 120.653 113.018C119.978 113.515 118.965 114.26 118.88 114.839C118.121 115.914 117.994 116.782 117.91 117.36C120.021 117.357 125.846 116.687 140.999 109.931C141.632 109.723 142.266 109.515 142.941 109.019C145.895 107.362 149.483 105.498 151.721 108.758C153.41 111.647 151.806 114.377 151.046 115.452C150.624 116.279 150.244 116.817 150.16 117.395C149.951 118.829 149.825 119.694 149.822 119.709C149.866 119.42 153.879 120.858 170.633 111.375C171.308 110.878 172.617 110.173 173.63 109.428C177.639 106.737 179.286 105.784 181.649 106.111C182.789 106.564 183.887 107.306 184.351 108.255C184.816 109.205 185.449 111.064 183.972 112.925C186.04 113.211 188.742 113.289 193.005 112.994C197.311 112.409 200.309 112.529 200.604 112.57C202.715 112.567 204.572 114.299 204.572 116.365C204.572 118.43 202.8 120.25 200.648 120.543C198.241 120.505 196.088 120.798 194.273 120.842C181.102 122.266 149.739 128.551 126.779 157.835C118.983 167.639 113.949 176.594 110.768 184.49C111.533 187.583 111.974 190.496 112.196 193.104C117.598 184.999 127.39 173.665 143.937 165.626C158.633 158.444 170.003 157.836 177.606 158.957C178.623 156.054 179.711 152.69 180.853 148.79C181.443 146.806 183.427 145.605 185.495 145.891C187.564 146.177 189.126 147.869 189.127 149.935C189.169 151.711 189.422 154.107 189.802 155.635C191.575 153.815 194.952 149.265 201.113 135.953C202.042 133.721 204.278 132.85 206.262 133.714C208.246 134.579 209.133 136.767 208.543 138.751C208.164 139.291 209.552 144.207 191.618 163.853C191.066 164.081 190.388 164.185 189.737 164.226C189.835 164.546 189.868 164.871 189.822 165.186C190.013 165.749 188.886 175.345 176.121 180.013C174.97 181.423 173.811 182.509 172.637 183.284C172.657 183.655 172.608 183.997 172.558 184.339C172.052 187.81 167.452 190.42 156.857 192.79C158.039 195.02 157.786 196.755 157.66 197.623C156.739 200.466 152.761 202.468 145.177 203.732C143.598 204.445 142.174 204.521 140.812 204.334C140.674 204.35 140.535 204.367 140.395 204.383C140.353 204.672 140.269 205.251 140.269 205.251C148.838 204.37 158.969 205.182 169.733 209.917C198.606 222.763 200.425 241.309 200.299 242.179C200.468 243.088 199.709 244.164 199.033 244.661C198.651 245.2 188.647 251.78 174.802 241.308C174.38 242.135 173.959 242.962 173.283 243.458C170.877 245.486 166.698 245.203 156.398 237.286C155.933 238.402 155.131 239.767 153.823 240.471C150.235 242.336 145.422 240.194 137.738 232.934C137.401 233.183 137.063 233.431 136.768 233.39C143.734 239.371 150.869 248.326 155.007 261.292C164.297 290.611 151.423 304.47 150.748 304.967C150.03 305.753 148.807 305.878 147.92 305.756C147.329 305.674 136.015 302.633 134.578 285.614C133.903 286.111 133.016 285.989 132.13 285.866C129.175 285.457 126.642 282.155 125.797 269.349C124.488 270.054 122.968 270.139 121.533 269.645C118.367 268.617 116.551 264.529 116.508 256.556C115.749 257.631 114.397 258.625 112.624 258.379C111.442 258.216 109.374 257.929 107.98 250.949C105.025 242.278 106.121 236.823 106.121 236.823C106.583 235.713 109.634 235.253 109.667 235.248C110.849 235.412 112.158 236.773 111.99 237.93C112.328 241.813 112.581 246.274 113.299 249.62C115.283 244.287 116.802 242.137 119.462 242.505C120.053 242.587 122.078 243.163 122.163 246.715C121.194 259.565 122.461 263.281 122.925 264.231C123.601 263.734 124.656 262.7 125.415 261.624C126.133 260.838 127.4 260.423 128.582 260.587C129.722 261.039 130.776 262.071 130.608 263.228C130.82 274.176 132.045 278.182 132.72 279.751C133.438 278.965 134.24 277.6 134.704 276.483C135.211 275.078 136.477 274.664 137.954 274.868C139.094 275.321 140.149 276.352 139.939 277.798C138.674 292.673 144.247 297.871 147.329 299.477C149.988 295.714 155.6 284.096 149.055 262.829C142.848 243.379 128.579 233.733 121.318 229.778C119.883 229.284 118.193 228.46 116.505 227.636C115.07 227.142 114.69 225.614 115.196 224.209C115.703 222.804 117.265 222.43 118.742 222.634C119.039 222.676 121.318 223.581 124.398 225.187C128.366 226.916 130.646 227.822 132.124 228.027C131.364 227.036 131.617 225.3 132.673 224.266C133.728 223.232 135.501 223.477 136.556 224.509C145.463 233.708 149.136 235.396 150.318 235.56C150.445 234.692 150.36 233.205 149.938 231.967C149.811 230.769 150.318 229.363 151.289 228.907C152.26 228.452 153.737 228.656 154.539 229.357C162.898 236.12 166.824 238.139 168.555 238.674C168.386 237.765 167.668 236.485 167.245 235.246C166.823 234.008 167.329 232.601 168.342 231.856C169.355 231.111 170.833 231.316 171.889 232.347C182.021 243.487 189.999 242.525 193.165 241.488C192.025 236.903 187.127 225.012 166.484 215.664C153.186 209.694 140.354 210.869 131.574 213.196C128.324 214.812 123.849 216.553 117.475 218.917C116.208 219.332 114.773 218.838 114.056 217.559C113.338 216.279 113.591 214.544 114.9 213.84C115.534 213.632 120.894 209.947 129.673 207.621C131.319 206.668 132.332 205.923 133.008 205.427C132.745 205.39 132.716 205.386 132.713 205.386C131.573 204.933 130.897 203.363 131.065 202.206C131.698 199.933 134.147 199.682 135.92 199.927C136.213 199.967 137.081 200.088 137.101 200.091C147.232 198.837 150.483 197.22 151.158 196.723C150.947 196.104 150.398 195.733 149.807 195.652C149.258 195.281 148.414 194.868 147.612 194.167C146.852 193.177 147.021 192.02 147.148 191.152C148.034 189.209 149.554 189.124 152.002 188.873C152.635 188.665 153.225 188.748 153.521 188.788C161.33 186.918 164.243 185.55 165.551 184.845C165.003 184.474 164.411 184.393 163.82 184.311C162.934 184.189 161.795 183.735 160.739 182.704C159.937 182.003 159.811 180.805 160.275 179.689C160.866 177.705 162.976 177.702 165.382 177.74C166.31 177.574 166.901 177.655 167.492 177.737C178.889 176.068 182.393 170.65 183.405 167.839C179.184 165.78 166.477 161.956 146.048 171.819C120.426 184.209 111.775 206.326 111.775 206.326C111.31 207.441 110.002 208.145 108.525 207.941C107.343 207.778 106.33 206.457 106.54 205.011C106.54 205.011 110.126 178.358 88.5951 160.625C71.3707 146.438 57.9886 147.243 53.3453 148.076C53.8522 150.802 55.7113 156.665 65.3361 160.948C67.0245 161.772 69.0082 162.637 71.0342 163.212C72.5117 163.417 73.2297 164.696 73.0188 166.142C72.8501 167.299 71.7524 168.623 70.275 168.419C70.2413 168.419 68.1517 168.425 66.6025 168.796C67.6579 169.827 70.4022 171.683 77.7053 175.349C78.8451 175.802 81.3784 177.038 81.3784 177.038C82.5181 177.49 83.2357 178.77 83.067 179.927C82.8139 181.662 81.4634 182.656 79.3109 182.948C78.9732 183.196 78.3817 183.115 78.3817 183.115C78.0496 183.359 77.7173 183.603 77.7066 183.611C78.2132 184.271 80.3244 186.334 88.6407 189.255C89.1894 189.626 89.7804 189.709 90.6667 189.831C93.5371 190.818 95.2678 191.353 95.6056 193.17C96.0699 194.12 95.6059 195.235 94.593 195.98C92.9046 197.222 91.4272 197.018 90.2452 196.854C89.6543 196.773 89.063 196.691 88.472 196.609C92.3559 198.917 95.3539 201.102 97.4648 203.165C100.416 205.636 101.936 207.616 101.939 207.62C102.699 208.611 102.784 210.098 101.728 211.133C100.715 211.878 99.1535 212.251 98.056 211.509C96.4096 210.396 94.4679 209.243 93.117 208.17C88.4311 205.161 85.5179 202.398 83.7447 200.087C75.3439 195.678 63.1863 192.226 47.3992 195.058C20.4259 200.18 11.3094 213.083 8.81925 217.755C11.5635 219.61 18.9511 222.698 31.2763 216.731C31.9094 216.524 32.6271 215.737 33.5979 215.282C36.257 213.584 37.6075 212.59 39.2961 213.414C40.1404 213.826 40.9008 214.817 41.0697 215.725C41.4072 217.542 40.0563 218.535 39.3388 219.321C38.959 219.859 38.3259 220.067 38.2414 220.645C37.5242 221.431 37.4401 222.009 37.3979 222.299C38.6225 222.173 42.591 221.837 53.227 217.112C53.5647 216.863 53.9023 216.614 54.5354 216.407C56.4771 215.495 59.0945 214.087 60.5721 216.357C61.501 218.256 60.319 220.159 59.8969 220.986C59.2219 221.482 59.179 221.771 59.0947 222.349C58.9287 223.487 58.845 224.066 58.8422 224.085C58.8683 224.094 61.4771 224.998 73.2363 218.404C73.6162 217.867 74.5867 217.41 75.2619 216.913C77.9209 215.216 79.2297 214.512 80.7071 214.716C81.5936 214.839 82.1003 215.499 82.6069 216.16C82.5226 216.738 83.2405 218.018 82.1431 219.342C83.6627 219.257 85.4359 219.501 88.475 219.332C91.5981 218.584 93.3709 218.829 93.6668 218.87C95.4819 218.826 96.7904 220.188 96.5795 221.634C96.6639 223.121 95.5671 224.444 94.0475 224.529C92.2326 224.573 90.6708 224.948 89.4888 224.784C80.5821 225.913 58.8423 230.282 42.9303 250.508C25.9211 272.058 27.8647 287.672 29.2582 292.586C33.2684 291.96 42.4279 289.096 47.4493 271.2C47.618 270.043 48.9688 269.049 50.4461 269.253C51.9236 269.458 53.2747 270.53 53.0638 271.977C53.0641 274.042 53.6554 276.19 54.1198 277.139C55.4283 276.435 58.3829 272.712 64.2912 259.07C64.7554 257.954 66.064 257.25 67.2459 257.413C68.4278 257.577 69.2304 258.278 69.6527 259.517C69.9906 261.334 71.1299 263.852 71.7209 263.935C71.4272 263.893 74.8884 262.892 80.2884 244.462C80.4999 243.016 83.2852 242.517 83.2852 242.517C84.4671 242.68 85.8177 243.753 85.6068 245.199C85.7336 246.397 86.0722 248.213 86.2411 249.122C87.3387 247.798 89.6177 244.572 93.9641 235.436C94.4705 234.031 96.0747 233.367 97.51 233.861C98.9451 234.354 99.3252 235.883 99.1144 237.329C99.0722 237.618 100.086 241.005 87.55 254.616C86.5791 255.072 84.8057 254.826 84.8057 254.826L84.5107 254.785C83.6242 254.662 83.0754 254.291 82.5266 253.92C78.5599 264.585 74.8878 269.094 70.6667 269.1C68.8516 269.144 67.2049 268.031 66.1916 266.711C59.4815 281.717 55.6397 283.252 52.3893 282.802C50.9543 282.308 50.1103 281.896 49.3504 280.906C40.9099 299.509 26.9367 298.166 26.3457 298.084C25.4595 297.962 24.6571 297.261 24.1927 296.312C24.0238 295.403 15.4951 275.336 38.0336 246.879C44.3223 238.897 51.4977 233.102 58.42 229.044C57.196 229.169 55.7609 228.676 54.9588 227.975C53.6078 226.903 52.2989 225.541 52.7207 222.648C40.7752 228.078 34.6122 228.996 31.7414 225.943C30.6439 225.201 30.2221 223.962 30.4329 222.516C11.4393 230.806 2.06669 220.658 1.51682 220.286C0.714767 219.585 0.882752 218.428 1.00929 217.56C1.13583 216.693 8.64771 196.19 45.2452 189.154C60.7367 186.281 73.0211 188.865 82.0551 193.065L82.4351 192.529C74.4566 189.359 70.9949 186.224 70.8679 182.96C71.0366 181.803 71.2477 180.357 72.978 178.826C63.4377 173.965 59.4271 170.459 59.9329 166.988C60.0595 166.121 60.2287 164.963 61.2418 164.218C45.7948 156.476 47.4773 144.909 47.5624 144.325C47.6889 143.458 48.4063 142.671 49.3772 142.215C50.0559 141.717 68.1632 135.373 92.0976 155.208C98.8414 160.707 103.425 166.885 106.503 172.971C109.754 166.64 114.051 159.863 119.686 152.722C128.887 141.306 139.144 132.986 149.064 126.981C146.953 126.984 145.222 126.45 143.871 125.378C142.225 124.264 140.452 121.954 140.747 117.863C123.061 125.45 114.112 126.867 110.228 122.494C108.961 120.843 108.286 119.274 108.581 117.249C80.8928 129.352 67.3408 114.792 66.8321 114.13C65.4812 113.057 65.692 111.611 65.9029 110.165C66.4115 108.753 77.0492 79.245 129.386 69.6668C151.969 65.7088 169.489 69.6077 182.786 75.5787C182.871 75.0006 183.503 74.7928 183.546 74.5039C171.895 69.646 166.786 65.3973 166.575 60.6466C166.743 59.4895 167.124 56.8868 169.529 54.8591C155.767 47.9388 149.899 42.7 150.616 37.7827C150.784 36.6257 151.291 35.2203 152.684 33.9376C130.227 22.5692 132.63 6.08316 132.757 5.21229C132.967 3.76604 134.064 2.44204 135.331 2.02699Z" fill="url(#paint0_linear_76_1551)"/>
</g>
<defs>
<linearGradient id="paint0_linear_76_1551" x1="159.856" y1="310.585" x2="217.514" y2="-95.362" gradientUnits="userSpaceOnUse">
<stop offset="0.168269" stop-color="#A2CB4B"/>
<stop offset="1" stop-color="#DFE782"/>
</linearGradient>
<clipPath id="clip0_76_1551">
<rect width="355" height="307" fill="white"/>
</clipPath>
</defs>
</svg>
