<svg width="144" height="98" viewBox="0 0 144 98" fill="none" xmlns="http://www.w3.org/2000/svg">
<path d="M105.656 97.6433C107.689 97.6433 109.681 97.5246 111.631 97.2866C123.205 95.8742 133.505 89.9095 139.182 81.3307C145.641 71.5709 145.602 58.2348 139.089 49.62C135.1 44.3446 128.878 40.7431 122.018 39.7389C115.63 38.8039 108.811 40.1121 102.82 43.424C97.2929 46.4785 92.8727 51.0506 90.3738 56.2974C87.5984 62.1253 87.2036 68.7339 89.2915 74.4294C92.776 83.9348 103.299 89.9382 113.259 88.0903C123.212 86.2463 130.891 76.8719 130.738 66.749C130.647 60.648 127.737 55.2914 123.145 52.7691C119.59 50.8159 114.973 50.5611 110.478 52.0693C106.234 53.4922 102.839 56.168 100.919 59.6034C98.634 63.6928 98.6866 68.6825 101.053 72.3156C103.732 76.4275 109.341 78.1477 113.554 76.1479C115.856 75.0563 117.608 72.8275 118.241 70.1862C118.837 67.6983 118.353 65.2023 116.914 63.3388C116.034 62.1995 114.397 61.9904 113.259 62.8687C112.12 63.7484 111.909 65.3847 112.789 66.5238C113.26 67.1328 113.4 68.0253 113.173 68.9719C112.907 70.0781 112.198 71.0234 111.321 71.4395C109.442 72.3301 106.684 71.411 105.42 69.4707C104.118 67.4718 104.137 64.5284 105.469 62.1456C106.736 59.8774 109.166 58.0058 112.134 57.0104C115.254 55.9645 118.352 56.0837 120.636 57.337C123.545 58.9346 125.465 62.6597 125.528 66.8271C125.64 74.3549 119.711 81.5947 112.309 82.9663C104.902 84.34 96.7757 79.7039 94.185 72.6354C92.5763 68.2474 92.9021 63.1092 95.0791 58.5385C97.1141 54.2659 100.759 50.5179 105.341 47.985C110.34 45.2217 115.995 44.1242 121.263 44.8954C126.78 45.7032 131.762 48.5705 134.932 52.7626C140.156 59.6724 140.115 70.4774 134.836 78.4542C129.99 85.7771 121.079 90.8835 111 92.1131C102.394 93.1637 92.7601 91.6135 82.3652 87.5079C74.4092 84.3651 66.7295 80.0658 59.3027 75.9081C58.0146 75.1872 56.727 74.466 55.4373 73.7506C41.1324 65.8131 26.3421 58.4139 11.368 51.7014C11.438 51.6847 11.5081 51.6688 11.5779 51.6521C14.3869 50.9939 17.0401 50.3725 19.6086 50.1271C21.0412 49.99 22.0918 48.7181 21.9549 47.2855C21.8179 45.8532 20.5533 44.8029 19.1133 44.9393C16.1941 45.2182 13.243 45.9092 10.3891 46.5781C7.58008 47.2364 4.9269 47.8577 2.35837 48.1032C1.17372 48.2165 0.21611 49.1172 0.031662 50.2929C-0.152771 51.4685 0.482529 52.6196 1.57553 53.0904C19.0268 60.6062 36.298 69.0905 52.9088 78.3075C54.1926 79.02 55.4747 79.7376 56.7573 80.4556C64.3341 84.6977 72.1689 89.0839 80.4508 92.3547C89.3557 95.8724 97.8071 97.6427 105.656 97.6432L105.656 97.6433Z" fill="#A2CB4B"/>
<path d="M99.8118 85.9763C100.809 85.9763 101.761 85.3998 102.193 84.4299C102.779 83.115 102.188 81.5746 100.873 80.9894L20.4238 45.1526C15.2525 42.85 11.7832 37.9746 11.3687 32.4284C10.5989 22.1356 13.9534 14.2641 21.6232 8.36348C26.0624 4.94926 32.0222 4.2544 37.1787 6.55101L126.913 46.5215C126.951 46.541 126.988 46.5593 127.024 46.5754L127.159 46.6356C127.204 46.6559 127.25 46.675 127.296 46.6928L127.867 46.9489C127.972 47.0219 128.084 47.0876 128.201 47.1457C129.49 47.7853 131.054 47.2559 131.692 45.9659L131.712 45.9256C132.026 45.291 132.069 44.5557 131.829 43.8891C131.59 43.2227 131.089 42.6824 130.443 42.3923L129.334 41.8949C129.299 41.8794 129.264 41.8646 129.229 41.8505C129.196 41.8342 129.164 41.8187 129.133 41.8047L39.2996 1.79C32.3939 -1.28595 24.4026 -0.349948 18.4458 4.23245C9.4031 11.189 5.2734 20.8061 6.17165 32.8165C6.72946 40.2783 11.3777 46.8295 18.3036 49.9133L98.7529 85.7494C99.0973 85.9029 99.4574 85.9754 99.8119 85.9759L99.8118 85.9763Z" fill="#A2CB4B"/>
</svg>
