<svg width="231" height="217" viewBox="0 0 231 217" fill="none" xmlns="http://www.w3.org/2000/svg">
<path d="M101.347 134.439C143.413 145.272 181.425 138.87 186.248 120.141C191.071 101.411 160.88 77.4463 118.814 66.6135C76.7477 55.7808 38.7366 62.1825 33.9134 80.912C29.0902 99.6416 59.2814 123.607 101.347 134.439Z" stroke="#A2CB4B" stroke-width="5.5" stroke-miterlimit="10" stroke-linecap="round" stroke-linejoin="round"/>
<path d="M186.334 119.782C172.062 129.652 142.059 131.532 109.656 123.188C67.863 112.425 37.7906 88.7001 42.1339 70.0231" stroke="#A2CB4B" stroke-width="5.5" stroke-miterlimit="10" stroke-linecap="round" stroke-linejoin="round"/>
<path d="M153.807 79.918C154.007 81.0976 153.97 82.2565 153.681 83.3784C151.278 92.7106 132.347 95.8982 111.391 90.5018C90.4403 85.1065 75.4019 73.1687 77.8039 63.8413C78.0328 62.9523 78.4119 62.1197 78.9306 61.3459" stroke="#A2CB4B" stroke-width="5.5" stroke-miterlimit="10" stroke-linecap="round" stroke-linejoin="round"/>
<path d="M54.8862 64.3444C57.9194 77.9889 79.8243 93.2336 108.772 100.688C119.777 103.522 130.435 104.88 139.926 104.896" stroke="#A2CB4B" stroke-width="5.5" stroke-miterlimit="10" stroke-linecap="round" stroke-linejoin="round"/>
<path d="M174.268 93.9595C171.512 97.6222 166.762 100.427 160.583 102.277" stroke="#A2CB4B" stroke-width="5.5" stroke-miterlimit="10" stroke-linecap="round" stroke-linejoin="round"/>
<path d="M188.196 140.007L214.314 140.46" stroke="#A2CB4B" stroke-width="5.5" stroke-miterlimit="10" stroke-linecap="round" stroke-linejoin="round"/>
<path d="M221.088 117.111L198.673 105.41" stroke="#A2CB4B" stroke-width="5.5" stroke-miterlimit="10" stroke-linecap="round" stroke-linejoin="round"/>
<path d="M200.296 124.398L227.621 130.59" stroke="#A2CB4B" stroke-width="5.5" stroke-miterlimit="10" stroke-linecap="round" stroke-linejoin="round"/>
</svg>
