<svg width="87" height="40" viewBox="0 0 87 40" fill="none" xmlns="http://www.w3.org/2000/svg">
<path d="M2.01767 18.9514C12.8718 15.4072 24.9882 17.2195 35.0294 22.3743C38.5924 24.1338 41.0927 27.4859 41.6583 31.4377C42.7185 29.7745 43.8065 28.1316 45.0431 26.592C45.6454 26.6104 46.866 26.645 47.4659 26.6633C48.1642 27.2817 48.8695 27.9 49.586 28.5276C49.6043 32.5345 47.2523 38.184 42.3565 37.3088C38.0447 36.2486 32.9976 42.9585 29.7804 38.175H29.7784C27.491 34.1064 32.6062 32.6471 35.5235 31.7903C28.0722 23.0021 14.7357 23.1346 4.28915 25.0178C0.47219 26.3781 -1.91354 20.3399 2.01767 18.9514ZM81.2589 0.249251C83.5831 -0.783984 85.1136 1.61984 86.0685 3.34495C84.5135 6.89119 80.4208 7.386 77.2745 8.83617C68.7288 12.1787 60.597 16.6965 53.8282 22.9485L53.8263 22.9465C50.5838 23.6268 48.1706 19.7799 50.3712 17.2873C59.0314 9.12705 70.1142 4.04308 81.2589 0.249251Z" fill="#F286B2"/>
</svg>
