<svg width="330" height="616" viewBox="0 0 330 616" fill="none" xmlns="http://www.w3.org/2000/svg">
<path d="M29.2043 278.007C35.5049 275.238 41.575 274.007 47.184 273.622C43.0349 272.238 40.8066 270.469 39.9614 268.007C39.7309 267.238 39.4235 265.776 40.1151 263.93C30.741 261.392 26.8224 258.777 26.3614 255.084C26.3614 254.546 26.3613 253.777 26.515 252.931C11.3014 248.315 10.4562 237.085 10.4562 236.623C10.3793 235.239 10.994 233.931 12.1466 233.162C12.7613 232.7 28.2822 222.777 54.9445 236.546C68.6214 243.623 77.3807 253.315 82.6056 261.007C84.296 251.084 89.0598 237.931 101.892 227.623C125.25 208.778 142.384 215.47 143.076 215.777C144.382 216.316 145.227 217.47 145.458 218.777C145.458 219.239 146.918 230.469 132.933 238.008C133.318 238.777 133.471 239.546 133.548 240.085C133.855 243.854 130.551 247.161 121.792 251.546C122.714 252.931 122.868 254.238 122.791 255.161C122.714 257.084 121.715 258.777 119.794 260.392C127.017 258.7 135.623 258.238 145.611 260.238C179.727 267.315 186.412 287.545 186.719 288.391C187.103 289.699 186.796 291.161 185.874 292.16C185.49 292.622 176.5 302.083 159.211 294.699C158.904 295.699 158.443 296.545 157.828 297.083C154.832 300.16 149.3 299.545 138.542 294.622C138.158 296.776 136.929 298.007 136.084 298.622C135.776 298.853 135.469 299.083 135.085 299.237C140.771 303.16 146.457 308.391 151.605 315.314C172.351 343.39 163.899 362.928 163.514 363.697C162.976 364.928 161.747 365.774 160.441 365.928C159.826 365.928 146.764 367.082 138.85 350.005C138.235 350.39 137.544 350.698 136.698 350.852C132.319 351.544 128.477 347.467 123.483 336.237C122.407 337.083 120.947 337.621 119.564 337.621C115.261 337.621 111.803 333.39 108.346 323.544C108.038 323.698 107.731 323.775 107.424 323.852C107.04 323.852 106.655 324.006 106.271 323.929C112.725 346.775 122.407 384.466 124.866 413.85C126.402 432.465 130.551 481.926 127.632 529.771C126.095 555.463 123.329 581.078 120.563 602.923C142.384 538.155 183.722 404.774 187.18 315.006C190.561 228.623 184.26 169.394 180.265 142.01C176.961 151.163 174.271 151.317 172.581 151.317C170.122 151.317 168.662 149.779 167.74 148.01C165.973 159.086 163.053 164.317 158.443 165.163C156.369 165.548 154.524 164.932 152.911 163.855C149.146 181.24 145.304 185.163 140.924 185.393C139.695 185.393 138.466 185.086 137.467 184.47C132.319 207.624 116.337 209.47 115.568 209.547C114.185 209.701 112.879 209.085 112.111 207.931C111.496 207.008 96.7435 185.778 114.954 147.087C123.022 130.087 134.547 119.087 144.997 112.087C144.613 111.857 144.228 111.549 143.921 111.241C132.088 119.626 125.173 121.702 120.947 118.472C119.257 117.164 118.488 115.395 118.258 113.472C102.814 122.241 97.2813 122.01 94.2847 118.856C93.3627 117.933 92.9017 116.856 92.6712 115.703C72.0022 127.318 60.0157 116.549 59.401 116.01C58.4021 115.087 57.9411 113.703 58.2484 112.318C58.4789 111.241 64.549 86.0109 105.503 73.9342C120.947 69.3189 134.777 70.242 146.072 73.165C146.072 72.8573 146.072 72.4727 146.072 72.165C131.704 68.319 125.096 64.4729 124.097 59.3961C123.79 58.0115 123.79 55.55 126.095 53.0885C112.341 47.704 106.732 43.4733 106.655 38.6273C106.655 37.4734 106.963 36.0119 108.115 34.6273C86.0632 25.9352 86.8316 9.7817 86.8316 9.08941C86.9084 7.70482 87.7536 6.47408 88.9062 5.8587C89.905 5.39717 113.186 -5.83336 148.531 18.2431C169.047 32.2428 180.111 49.7809 185.797 62.0883C189.178 47.9348 197.937 27.4736 220.143 13.6278C256.486 -8.98714 279.384 3.24337 280.306 3.78182C281.535 4.47412 282.227 5.70486 282.303 7.08945C282.303 7.78174 282.303 23.9353 259.944 31.7043C261.02 33.0889 261.327 34.5504 261.25 35.7042C261.02 40.5503 255.18 44.6271 241.273 49.3963C243.347 51.7808 243.347 54.0885 243.117 55.3961C242.272 60.0114 236.97 63.396 225.598 66.3959C225.829 66.7036 226.059 67.0882 226.213 67.3959C239.275 63.4729 256.256 62.0883 276.464 68.9343C323.718 84.8571 329.635 114.395 329.942 115.626C330.173 117.01 329.712 118.318 328.636 119.241C328.021 119.779 313.422 131.856 289.526 116.779C289.372 118.703 288.527 120.241 287.144 121.395C282.841 124.933 274.697 122.549 259.483 113.01C259.176 116.856 257.255 118.779 255.564 119.703C254.181 120.472 252.491 120.779 250.647 120.626C259.176 127.549 267.551 136.779 274.466 149.01C299.131 192.47 283.917 218.393 283.225 219.47C282.534 220.624 281.228 221.316 279.845 221.316C278.923 221.316 260.021 220.547 252.26 193.393C251.108 194.47 249.648 195.239 247.881 195.239C243.501 195.393 238.737 192.316 232.36 170.471C230.593 172.163 228.364 173.394 225.752 173.009C220.066 172.317 216.07 165.317 212.92 149.856C212.075 150.394 211.153 150.702 210.077 150.779C208.848 150.856 207.542 150.625 206.235 149.856C211.614 183.855 219.451 242.623 217.761 286.238C216.685 313.468 213.919 385.774 201.318 454.465C189.639 517.771 172.965 580.77 162.976 616H154.985C164.821 581.462 181.878 517.387 193.711 453.08C206.235 385.005 209.001 313.083 210.077 285.314C212.536 222.085 194.172 124.856 193.942 123.933C193.557 121.933 194.864 119.933 196.861 119.472C198.859 119.01 200.857 120.164 201.472 122.164C205.313 135.548 208.003 140.548 209.386 142.317C210 141.01 210.615 138.779 210.846 136.856C211.153 135.01 212.766 133.625 214.611 133.625C216.531 133.625 218.145 135.01 218.376 136.933C222.141 163.163 226.443 165.394 226.213 165.471C227.135 165.163 229.056 162.394 230.055 159.856C230.669 158.317 232.283 157.394 233.896 157.471C235.587 157.548 236.97 158.702 237.354 160.317C242.425 180.163 245.96 185.701 247.343 187.163C248.188 185.855 249.264 182.932 249.725 180.24C250.032 178.394 251.799 176.932 253.643 177.086C255.564 177.086 257.101 178.547 257.332 180.47C260.559 206.008 272.468 211.854 277.54 213.239C280.306 206.547 286.145 185.47 267.628 152.779C250.109 121.933 221.987 111.703 210.077 108.626C208.31 108.318 206.312 107.857 204.161 107.395C202.163 106.934 200.857 105.011 201.241 103.011C201.625 101.011 203.469 99.5491 205.467 99.8568C205.851 99.8568 208.464 100.241 212.536 101.318C216.455 102.011 219.067 102.318 220.834 102.395C219.759 100.395 220.45 98.7799 221.142 97.8568C221.756 97.0107 222.832 96.3953 223.908 96.2415C226.059 96.0107 227.442 97.3184 230.823 100.395C231.822 101.241 232.744 102.164 233.435 102.703C247.881 113.856 251.569 113.087 251.492 113.241C251.569 113.087 251.799 112.395 251.646 110.933C251.646 110.318 251.338 109.703 251.031 109.01C250.493 107.78 249.264 105.011 251.415 102.549C254.028 99.626 257.101 102.011 259.637 103.857C260.251 104.318 260.866 104.78 261.327 105.087C274.62 113.549 279.922 115.01 281.689 115.164C281.612 114.626 281.458 113.856 280.997 112.78C280.767 112.164 280.152 111.395 279.691 110.703C278.769 109.472 277.463 107.703 278.231 105.472C278.615 104.241 279.998 103.087 281.228 102.78C283.686 102.164 285.377 103.626 288.527 106.395C289.603 107.318 290.679 108.318 291.524 108.857C307.122 119.626 317.495 116.626 321.644 114.549C319.262 107.703 309.58 88.0878 274.005 76.088C253.259 69.0882 236.278 71.5497 224.061 76.088C221.449 79.011 216.839 82.011 209.924 85.5494C207.695 86.6263 205.236 87.857 202.47 89.0878C200.78 89.857 198.782 89.3185 197.707 87.7801C196.631 86.2417 196.861 84.1648 198.168 82.8571C198.244 82.7802 200.626 80.3956 205.006 77.3957C208.387 75.0881 212.843 72.3958 218.299 70.0881C217.53 69.7805 216.608 69.7805 215.686 69.7035C214.073 69.6266 211.844 69.5497 210.154 67.7805C209.155 66.7805 208.694 65.0882 209.155 63.7037C210 61.0883 212.305 60.7806 216.378 60.2422C217.453 60.0884 218.606 59.9345 219.298 59.7807C230.823 57.1653 234.358 54.8577 235.28 54.0116C235.049 53.8577 234.819 53.55 234.358 53.3193C234.05 53.0885 233.512 52.9347 232.974 52.8577C229.978 52.0885 228.441 50.4732 228.518 48.0117C228.518 46.3194 229.67 44.9348 231.207 44.3964C231.207 44.3964 234.972 43.2425 236.586 42.7041C247.036 39.2426 251.185 36.8581 252.798 35.6273C252.798 35.6273 252.721 35.6273 252.645 35.6273C250.57 34.7812 247.804 34.3197 247.804 34.3197C245.96 34.012 244.5 32.4735 244.5 30.5505C244.5 28.6275 245.806 27.0121 247.727 26.7044C250.57 26.2429 253.182 25.6275 255.641 24.8583C269.472 20.6276 273.237 13.1662 274.236 9.32017C268.089 7.16637 250.416 3.7049 224.292 19.9353C191.79 40.1657 191.329 77.3957 191.329 77.7803C191.329 79.7803 189.869 81.3956 187.871 81.6264C185.951 81.8571 184.106 80.5495 183.722 78.6264C183.722 78.3187 176.269 46.3963 144.228 24.4737C118.796 7.08945 101.046 9.85862 94.8226 11.7047C95.7446 15.7047 99.3559 23.7045 114.185 28.4736C114.8 28.7044 115.876 28.7813 116.875 28.9352C120.179 29.4736 122.791 29.8582 123.559 32.6274C123.944 34.0889 123.406 35.8581 122.253 36.8581C120.716 38.1657 119.026 38.3196 117.566 38.3965C116.721 38.3965 115.953 38.5503 115.184 38.858C116.721 40.1657 120.64 42.6272 130.705 46.4733C131.243 46.6271 132.011 46.8579 132.78 47.0886C135.93 47.9348 138.235 48.4732 138.85 51.0885C139.157 52.4731 138.696 54.0885 137.62 55.0115C136.545 56.0115 135.315 56.3961 134.316 56.7807C133.548 57.0884 132.857 57.3192 132.165 57.7807C132.011 57.8576 131.935 57.9346 131.858 58.0115C132.857 59.0115 136.698 61.7037 150.298 65.1652C150.683 65.2421 151.374 65.319 151.989 65.3959C154.601 65.7805 157.598 66.1652 157.905 69.3959C158.059 71.1651 156.753 73.0112 155.062 73.5496C154.909 73.5496 154.678 73.6265 154.524 73.7035C155.216 74.4727 156.445 75.7034 158.597 77.3188C169.815 82.3187 176.577 88.2416 177.114 88.7031C178.574 90.0108 178.805 92.1646 177.729 93.78C176.577 95.3953 174.502 95.8568 172.735 94.9338C164.667 90.6262 159.058 87.0878 155.062 84.2417C143.537 79.2418 126.863 75.3188 107.577 81.0879C78.0722 89.857 68.9287 105.395 66.4699 111.395C70.6191 113.472 80.9152 116.087 97.0508 103.087C98.5107 101.934 100.662 101.934 102.045 103.241C103.428 104.549 103.736 106.626 102.66 108.241C101.661 109.703 100.816 111.549 100.355 112.856C102.66 112.395 108.269 110.472 121.254 102.549C122.637 101.703 124.481 101.857 125.788 102.857C127.094 103.857 127.478 105.703 126.863 107.241C126.249 108.857 125.788 110.857 125.788 111.933C127.324 111.78 132.626 110.318 146.61 99.3952C148.224 98.1645 150.529 98.3953 151.912 99.9337C153.218 101.472 153.141 103.78 151.682 105.241C153.679 105.087 157.06 104.472 162.592 102.934C167.202 101.241 170.199 100.626 170.66 100.549C172.658 100.164 174.656 101.395 175.117 103.318C175.654 105.318 174.502 107.318 172.581 107.934C170.045 108.78 167.74 109.472 165.589 110.087C154.985 114.01 133.932 124.779 121.946 150.163C108.807 178.009 114.339 195.162 117.105 201.009C121.408 199.316 130.244 193.316 131.243 172.625C131.32 170.701 132.78 169.163 134.701 169.009C136.545 168.778 138.312 170.009 138.85 171.855C139.311 173.548 140.079 175.471 140.771 176.624C142 174.624 144.305 169.163 146.994 154.163C147.302 152.548 148.608 151.24 150.222 151.01C151.835 150.779 153.449 151.625 154.217 153.163C154.985 154.702 156.215 156.394 157.06 157.086C157.982 155.856 160.441 150.856 161.593 132.933C162.285 128.087 165.282 127.625 166.204 127.549C169.969 127.395 171.428 130.779 173.196 138.625C174.656 134.318 176.269 128.241 177.345 122.856C177.729 121.087 179.266 119.779 181.11 119.779C182.877 119.779 184.491 121.01 184.875 122.779C185.029 123.472 199.704 192.239 194.94 315.006C191.175 410.773 144.92 555.386 124.328 615.615H111.189C114.493 591.308 118.181 560.078 120.025 529.002C122.868 481.695 118.796 432.696 117.259 413.773C113.724 370.774 93.209 306.314 92.9785 305.699C92.3638 303.776 93.3627 301.622 95.2836 300.93C97.2045 300.237 99.3559 301.16 100.124 303.006C102.429 308.468 104.197 311.699 105.349 313.545C105.349 313.237 105.349 312.929 105.349 312.699C105.349 310.776 106.886 309.237 108.73 309.006C110.574 308.776 112.418 310.006 112.879 311.852C115.953 323.237 118.258 327.467 119.41 329.006C119.794 328.314 120.179 327.314 120.409 326.467C120.87 324.852 122.253 323.698 123.944 323.621C125.634 323.621 127.171 324.544 127.709 326.083C131.32 335.237 133.702 339.467 135.085 341.467C135.239 340.698 135.392 339.775 135.469 339.006C135.623 337.083 137.083 335.621 138.927 335.39C140.848 335.237 142.538 336.467 142.999 338.313C146.687 353.159 153.679 356.851 157.367 357.775C158.52 352.313 159.442 338.467 145.535 319.698C131.397 300.622 111.803 296.083 103.659 295.007C102.429 294.93 101.046 294.776 99.5096 294.622C97.435 294.391 95.9751 292.622 96.0519 290.622C96.1288 288.545 97.8192 287.007 99.8938 287.007C100.201 287.007 101.968 287.007 104.888 287.391C106.502 287.468 107.808 287.545 108.807 287.468C108.653 286.314 109.114 285.314 109.345 284.853C109.883 283.93 110.881 283.161 111.88 282.93C113.878 282.468 115.184 283.468 117.873 285.314C118.565 285.776 119.257 286.314 119.794 286.622C126.172 290.391 129.476 291.545 131.013 291.853C130.936 291.622 130.782 291.391 130.628 291.084C130.167 290.314 128.631 287.853 130.398 285.391C132.549 282.238 135.93 284.161 137.697 285.238C138.158 285.468 138.542 285.776 138.927 285.93C145.227 288.93 148.915 290.161 150.99 290.699C150.836 290.545 150.683 290.314 150.529 290.161C149.761 289.391 148.301 287.853 148.762 285.622C149.069 284.391 150.145 283.161 151.297 282.699C153.526 281.853 155.139 282.93 157.675 284.699C158.443 285.238 159.211 285.776 159.826 286.084C169.584 291.161 175.654 289.545 178.574 288.084C175.808 283.238 167.356 272.315 144.382 267.546C130.244 264.623 119.257 267.546 111.496 271.469C109.806 273.699 106.886 276.161 102.506 279.161C101.123 280.084 99.5096 281.161 97.6655 282.238C96.052 283.161 94.0542 282.93 92.8248 281.468C91.5954 280.084 91.5186 278.007 92.6712 276.545C92.8248 276.315 94.2847 274.545 97.0508 272.084C98.5107 270.853 100.201 269.469 102.199 268.084C101.43 267.93 100.585 267.699 99.8169 267.084C98.6644 266.161 98.0497 264.623 98.357 263.238C98.8949 260.7 101.123 260.084 103.889 259.392C104.581 259.238 105.272 259.007 105.733 258.854C110.113 257.315 112.572 256.007 114.032 255.161C111.035 254.546 110.344 252.469 110.267 251.315C110.113 249.7 111.035 248.084 112.495 247.392L116.029 245.777C120.025 243.931 122.484 242.469 124.02 241.469C123.79 241.469 123.559 241.469 123.406 241.469C121.485 241.469 119.948 240.008 119.718 238.162C119.487 236.315 120.64 234.469 122.407 234.008C124.328 233.469 126.018 232.854 127.478 232.162C134.777 228.931 137.159 224.777 137.851 222.162C132.933 221.47 121.715 221.624 107.04 233.546C87.2158 249.546 89.7514 273.469 89.905 274.469C90.1355 276.392 88.8293 278.238 86.9852 278.699C85.0643 279.161 83.1434 278.084 82.5287 276.238C82.5287 276.007 74.9219 255.392 51.7942 243.392C35.0439 234.7 23.9794 236.7 19.2924 238.392C20.5986 240.931 23.9026 244.7 32.4314 246.315C32.8156 246.315 33.5071 246.315 34.1218 246.392C36.5038 246.392 38.9625 246.546 40.0382 249.084C40.6529 250.469 40.2687 252.238 39.2698 253.315C38.5783 254.084 37.81 254.469 37.1184 254.7C38.8088 255.315 41.3445 256.161 45.2631 257.161C45.5704 257.238 46.1083 257.315 46.5693 257.392C48.7975 257.7 51.1027 258.007 52.0247 260.392C52.5626 261.7 52.2552 263.315 51.3332 264.392C50.6417 265.238 49.7964 265.7 49.1817 266.007C50.8721 266.623 54.0993 267.546 60.0157 268.238C60.2462 268.238 60.7072 268.238 61.0914 268.238C62.9355 268.238 65.9321 268.238 66.6236 271.469C66.931 272.699 66.4699 274.084 65.5479 275.007C65.9321 275.315 66.4699 275.622 67.0847 275.93C75.2293 278.468 80.3773 281.93 80.8384 282.238C82.4519 283.391 82.9129 285.468 81.9909 287.238C81.0689 288.93 78.9943 289.699 77.2271 289.007C71.4643 286.776 67.3152 284.853 64.3185 283.161C56.2507 280.776 44.9557 279.622 32.7387 284.93C15.3737 292.468 9.99518 302.314 8.38162 307.006C11.5319 307.699 17.7556 307.314 26.054 298.776C27.3602 297.391 29.5116 297.237 31.0483 298.314C32.5851 299.391 33.1229 301.468 32.2777 303.16C32.2009 303.314 32.1241 303.545 32.0472 303.699C34.1218 302.545 37.4258 300.391 42.5738 296.237C43.88 295.237 45.6472 295.084 47.1071 296.007C48.4902 296.93 49.1049 298.622 48.7207 300.237C48.6439 300.545 48.567 301.006 48.4902 301.391C50.2574 300.391 53.5614 298.007 59.4778 292.16C60.9377 290.699 63.2428 290.699 64.7795 292.007C65.6248 292.776 66.0089 293.776 66.0089 294.776C67.2383 294.391 68.8519 293.776 71.0033 292.93C73.9999 291.391 76.0745 290.699 76.305 290.622C78.2259 290.007 80.3005 290.93 81.0689 292.853C81.8372 294.776 80.992 296.93 79.1479 297.776C77.5344 298.545 75.9977 299.237 74.5378 299.853C67.7762 303.391 54.714 312.16 48.7976 330.006C42.8812 347.929 46.5693 358.544 48.9512 362.928C51.5637 361.005 55.4823 356.159 54.6371 344.236C54.4835 342.313 55.7897 340.621 57.6338 340.236C59.4778 339.775 61.3219 340.775 62.0903 342.544C62.0903 342.698 62.2439 342.929 62.3208 343.083C62.8586 340.852 63.3965 336.929 63.7807 330.237C63.8575 328.544 65.01 327.16 66.6236 326.775C68.2372 326.314 69.9276 327.006 70.8496 328.391C71.0801 328.698 71.3106 329.006 71.5411 329.314C72.0022 327.314 72.3864 323.16 72.0022 314.698C72.0022 311.314 73.9999 309.776 75.7671 309.468C78.3027 309.083 79.8395 310.622 81.1457 313.16C81.453 311.083 81.7604 308.699 81.9141 306.391C82.0677 304.545 83.4508 303.16 85.2948 302.853C87.0621 302.622 88.8293 303.699 89.444 305.391C90.0587 307.237 105.349 351.467 112.264 435.542C116.644 488.618 104.658 565.77 95.1299 615.846H87.2926C96.7435 566.232 108.884 488.926 104.581 436.158C100.047 381.312 91.8259 343.159 86.6779 323.391C85.218 326.852 83.6045 327.006 82.3751 327.16C81.3762 327.314 80.531 327.16 79.7626 326.698C79.2248 333.314 77.4576 336.621 74.1536 337.698C73.0779 338.083 72.0022 338.083 71.0033 337.852C69.9276 348.082 67.7762 352.313 63.7807 353.005C63.2428 353.082 62.705 353.082 62.2439 353.005C60.0925 368.697 49.1817 371.313 48.6439 371.467C47.2608 371.774 45.8778 371.313 44.9557 370.313C44.4179 369.774 32.2009 356.005 41.575 327.467C44.1874 319.545 48.0292 313.16 52.1783 308.083C48.7207 310.006 46.0314 310.237 43.8032 308.929C42.8043 308.314 42.1128 307.545 41.575 306.622C33.1998 312.622 28.6664 313.852 25.5161 311.314C25.0551 310.929 24.7478 310.545 24.4404 310.16C11.3014 319.083 2.08102 312.622 1.62 312.314C0.544312 311.545 -0.0703735 310.16 0.00643921 308.852C0.00643921 308.083 2.15784 289.776 29.6653 277.853L29.2043 278.007Z" fill="#A2CB4B"/>
</svg>
