<svg width="632" height="119" viewBox="0 0 632 119" fill="none" xmlns="http://www.w3.org/2000/svg">
<path d="M551.699 43.8628C512.185 43.8628 512.185 0 472.521 0C432.858 0 433.007 43.8628 393.493 43.8628C353.979 43.8628 353.979 1.04673 315.962 0C315.962 0 315.513 0 315.214 0C314.914 0 314.765 0 314.465 0C276.448 1.19626 275.849 43.8628 236.785 43.8628C197.72 43.8628 197.271 0 157.607 0C117.943 0 118.093 43.8628 78.5789 43.8628C39.065 43.8628 39.514 0 0 0V118.43H631.625V0C592.111 0 591.363 43.8628 551.849 43.8628H551.699Z" fill="url(#paint0_linear_2009_10)"/>
<defs>
<linearGradient id="paint0_linear_2009_10" x1="247.386" y1="128.518" x2="247.386" y2="-62.2852" gradientUnits="userSpaceOnUse">
<stop offset="0.23" stop-color="#DF1867"/>
<stop offset="1" stop-color="#F286B2"/>
</linearGradient>
</defs>
</svg>
