<svg width="17" height="22" viewBox="0 0 17 22" fill="none" xmlns="http://www.w3.org/2000/svg">
<path fill-rule="evenodd" clip-rule="evenodd" d="M7.71588 21.7009C7.71588 21.7009 0 15.1089 0 8.62259C0 6.33574 0.895533 4.14255 2.48959 2.5255C4.08365 0.908449 6.24566 0 8.5 0C10.7543 0 12.9163 0.908449 14.5104 2.5255C16.1045 4.14255 17 6.33574 17 8.62259C17 15.1089 9.28413 21.7009 9.28413 21.7009C8.85487 22.1019 8.14831 22.0975 7.71588 21.7009ZM8.5 12.395C8.98835 12.395 9.47192 12.2974 9.9231 12.1078C10.3743 11.9182 10.7842 11.6404 11.1296 11.2901C11.4749 10.9398 11.7488 10.5239 11.9357 10.0662C12.1226 9.60853 12.2188 9.11799 12.2188 8.62259C12.2188 8.12719 12.1226 7.63665 11.9357 7.17896C11.7488 6.72127 11.4749 6.30541 11.1296 5.95511C10.7842 5.60481 10.3743 5.32694 9.9231 5.13736C9.47192 4.94778 8.98835 4.85021 8.5 4.85021C7.51373 4.85021 6.56785 5.24765 5.87045 5.95511C5.17305 6.66257 4.78125 7.62209 4.78125 8.62259C4.78125 9.62309 5.17305 10.5826 5.87045 11.2901C6.56785 11.9975 7.51373 12.395 8.5 12.395Z" fill="#F4D60F"/>
</svg>
